<svg width="65" height="66" viewBox="0 0 65 66" fill="none" xmlns="http://www.w3.org/2000/svg">
<path d="M15 16.5328C15.0089 17.6109 15.1379 18.6853 15.385 19.7394C15.9035 21.9675 16.739 24.1236 17.87 26.1525C21.0957 31.7008 25.187 36.7886 30.015 41.2554L32.5 43.5L34.985 41.2554C39.813 36.7886 43.9043 31.7008 47.13 26.1525C48.261 24.1236 49.0965 21.9675 49.615 19.7394C49.8621 18.6853 49.9911 17.6109 50 16.5328C50 12.2806 48.1563 8.20264 44.8744 5.1959C41.5925 2.18917 37.1413 0.5 32.5 0.5C27.8587 0.5 23.4075 2.18917 20.1256 5.1959C16.8437 8.20264 15 12.2806 15 16.5328ZM36 19.7394H29V13.3262H36V19.7394Z" fill="white"/>
<path d="M57.3679 26.5H51.2622C51.2776 26.7164 51.2776 26.9336 51.2622 27.15C50.7472 29.6806 49.9023 32.1291 48.75 34.43C45.6712 40.4008 41.7496 45.8761 37.1111 50.68L32.5 55.1325L28.0161 50.615C23.3542 45.8239 19.4204 40.3466 16.3454 34.365C15.1876 32.0551 14.3424 29.5951 13.8332 27.0525C13.789 26.8708 13.7571 26.6862 13.7378 26.5H7.63209L0 65.5H65L57.3679 26.5Z" fill="white"/>
</svg>
