<svg width="119" height="101" viewBox="0 0 119 101" fill="none" xmlns="http://www.w3.org/2000/svg">
<path d="M70.4554 74.1781C70.7089 73.999 70.8759 73.7483 70.9251 73.4731C70.9743 73.1979 70.9022 72.9171 70.7225 72.6834C70.5428 72.4496 70.2677 72.2791 69.9489 72.2037C69.6302 72.1283 69.2896 72.1532 68.9912 72.2739C67.5967 73.0355 66.0628 73.8119 64.6335 74.2952C63.361 74.7347 62.1932 74.9104 61.3216 74.6321C52.8509 71.4799 44.4254 68.2425 36.047 64.9207L35.8727 46.4939L37.3194 45.615C44.7624 44.1795 48.4403 43.0077 51.1943 42.1288C55.9878 40.6055 57.818 40.0196 73.4186 40.5469L87.5027 55.6633C86.7761 56.3537 86.0671 57.057 85.3761 57.7726C85.197 58.0086 85.1272 58.2916 85.18 58.568C85.2327 58.8444 85.4044 59.0949 85.6624 59.2719C85.9204 59.449 86.2468 59.5403 86.5796 59.5285C86.9123 59.5167 87.2284 59.4027 87.4678 59.2081C88.3571 58.3031 89.2696 57.4142 90.2044 56.5422C90.4448 56.3456 90.5902 56.0814 90.6127 55.8002C90.6352 55.519 90.5333 55.2407 90.3265 55.0188L75.2314 38.7892C75.1124 38.6424 74.9544 38.521 74.7698 38.4346C74.5852 38.3481 74.3792 38.299 74.1681 38.2911C57.452 37.7052 55.4649 38.3351 50.2531 40.0049C45.8043 41.4429 41.2295 42.5888 36.5699 43.4325C36.3495 43.4573 36.1398 43.5278 35.9598 43.6376L33.8333 44.9559C33.6312 45.0573 33.464 45.201 33.3479 45.3731C33.2318 45.5451 33.1708 45.7395 33.1709 45.9373L33.3452 65.5652C33.3253 65.794 33.3877 66.0226 33.5245 66.2211C33.6613 66.4197 33.8661 66.579 34.1122 66.6784C34.1819 66.6931 56.8593 75.6135 60.3455 76.7561C61.9666 77.2834 63.7968 77.0344 65.627 76.4192C67.283 75.8626 68.9389 74.9983 70.4554 74.1781Z" fill="#00796B"/>
<path d="M47.5864 43.0956C47.6458 42.8261 47.588 42.5476 47.4234 42.311C47.2589 42.0743 46.9986 41.8953 46.69 41.8065C46.3815 41.7177 46.0452 41.7251 45.7426 41.8273C45.4399 41.9295 45.1911 42.1197 45.0415 42.3632C45.0415 42.3925 39.7251 55.2385 48.179 56.4983C48.2306 56.5105 48.283 56.5203 48.3359 56.5275C51.6477 56.8937 53.4605 54.9749 55.4651 52.8656C58.2889 49.8921 61.5659 46.4646 71.484 52.6459C71.5437 52.6896 71.6079 52.7288 71.6757 52.7631C72.8087 53.3197 84.1387 58.9884 85.7598 60.7168C86.0576 61.0368 86.2337 61.4247 86.2653 61.83C86.2976 62.1988 86.1942 62.567 85.969 62.8847C85.6793 63.2591 85.2503 63.5424 84.7488 63.6903C83.6979 63.9834 82.5738 64.039 81.4893 63.8514L68.5905 57.5968C68.2793 57.4572 67.9158 57.4246 67.5766 57.506C67.2374 57.5874 66.9491 57.7763 66.7726 58.033C66.5962 58.2897 66.5453 58.5939 66.6308 58.8815C66.7163 59.1691 66.9315 59.4175 67.2309 59.5743L80.304 65.9167C80.4485 65.99 80.6081 66.0397 80.7746 66.0632C82.8663 66.3562 84.5048 66.2243 85.7424 65.8142C86.744 65.513 87.6012 64.945 88.1833 64.1967C88.7654 63.4484 89.0406 62.5608 88.9671 61.6689C88.8932 60.8146 88.5168 59.9983 87.8863 59.3253C85.9341 57.2306 73.994 51.269 73.0353 50.7856C61.0604 43.3446 56.9293 47.6803 53.3385 51.4448C51.8569 53.0121 50.4973 54.4476 48.7019 54.2718H48.6148C43.3507 53.4222 47.5689 43.1249 47.5864 43.0956Z" fill="#00796B"/>
<path d="M65.0861 63.5291C64.7761 63.4316 64.4343 63.4325 64.125 63.5317C63.8157 63.6308 63.5601 63.8214 63.4061 64.0677C63.2521 64.3139 63.2103 64.5989 63.2885 64.8693C63.3668 65.1396 63.5597 65.3766 63.8311 65.5359L75.8409 70.8384C76.8842 71.2343 78.039 71.3756 79.1733 71.2461C80.3076 71.1166 81.3757 70.7215 82.2555 70.106C82.96 69.553 83.4 68.803 83.493 67.9967C83.5671 66.6751 83.0858 65.3737 82.1334 64.3201C81.937 64.0676 81.6292 63.891 81.2778 63.8292C80.9264 63.7674 80.5601 63.8254 80.2596 63.9905C79.9591 64.1556 79.749 64.4143 79.6755 64.7096C79.6019 65.0049 79.671 65.3127 79.8674 65.5652C80.617 66.5173 80.8784 67.235 80.8087 67.7623C80.7691 68.0216 80.6208 68.2605 80.3904 68.4361C80.0827 68.6692 79.7116 68.8352 79.3097 68.9195C78.58 69.1025 77.7973 69.0662 77.0959 68.817L65.0861 63.5291Z" fill="#00796B"/>
<path d="M63.8144 69.1539C63.5019 69.0243 63.142 69.0006 62.8092 69.0875C62.4764 69.1745 62.1961 69.3655 62.0261 69.6212C61.8561 69.8768 61.8094 70.1776 61.8956 70.4614C61.9819 70.7451 62.1946 70.9902 62.4897 71.146L70.9611 75.1009C71.1058 75.1738 71.2654 75.2381 71.4317 75.262C72.5473 75.4671 79.6242 76.6096 78.2297 69.813C78.1673 69.5139 77.966 69.2479 77.6702 69.0734C77.3743 68.899 77.0082 68.8305 76.6522 68.8829C76.2962 68.9354 75.9796 69.1045 75.7721 69.3531C75.5645 69.6017 75.4829 69.9094 75.5454 70.2085C76.2426 73.6068 72.9133 73.1967 72.1289 73.0648L63.8144 69.1539ZM19.5751 40.5908H31.8115C32.9271 40.5908 33.9555 40.9863 34.6876 41.6015C35.4197 42.2167 35.8903 43.0663 35.8903 44.0184V66.9714C35.8926 67.4201 35.7891 67.8648 35.5858 68.2797C35.3826 68.6947 35.0835 69.0717 34.7059 69.389C34.3283 69.7063 33.8797 69.9576 33.3859 70.1285C32.8921 70.2993 32.3629 70.3862 31.8289 70.3843H19.5751C19.0411 70.3862 18.5119 70.2993 18.0181 70.1285C17.5243 69.9576 17.0757 69.7063 16.6981 69.389C16.3205 69.0717 16.0215 68.6947 15.8182 68.2797C15.6149 67.8648 15.5114 67.4201 15.5137 66.9714V44.0038C15.5114 43.555 15.6149 43.1104 15.8182 42.6954C16.0215 42.2805 16.3205 41.9034 16.6981 41.5861C17.0757 41.2688 17.5243 41.0175 18.0181 40.8467C18.5119 40.6759 19.0411 40.5889 19.5751 40.5908ZM31.8115 42.8759H19.5751C19.2145 42.8759 18.8687 42.9963 18.6137 43.2105C18.3587 43.4248 18.2155 43.7154 18.2155 44.0184V66.9714C18.2155 67.279 18.3724 67.5573 18.6164 67.777C18.8703 67.9916 19.215 68.1127 19.5751 68.1139H31.8115C32.1721 68.1139 32.5179 67.9935 32.7729 67.7793C33.0279 67.565 33.1711 67.2744 33.1711 66.9714V44.0038C33.1711 43.7007 33.0279 43.4101 32.7729 43.1959C32.5179 42.9816 32.1721 42.8759 31.8115 42.8759ZM84.1387 29.8834L74.5867 36.3137C74.3115 36.504 74.1362 36.7775 74.0986 37.0754C74.0463 37.3683 74.1509 37.6613 74.3775 37.9103L91.4422 55.8391C91.6656 56.0759 91.9915 56.2286 92.3486 56.2639C92.6972 56.2932 93.0459 56.22 93.3596 56.0149L102.912 49.5992C103.05 49.5032 103.164 49.3852 103.248 49.252C103.332 49.1188 103.383 48.9729 103.4 48.8229C103.441 48.5246 103.341 48.2246 103.121 47.9879L86.0561 30.0591C85.8296 29.8279 85.5042 29.6806 85.1497 29.649C84.9711 29.6299 84.7898 29.6407 84.6163 29.681C84.4427 29.7212 84.2804 29.79 84.1387 29.8834ZM72.8959 34.5267L82.4654 28.111C82.8807 27.8277 83.3588 27.6165 83.872 27.4895C84.3852 27.3626 84.9233 27.3225 85.455 27.3715C85.9868 27.4206 86.5017 27.5578 86.9699 27.7752C87.4381 27.9927 87.8503 28.286 88.1827 28.6383L105.23 46.5671C105.567 46.9162 105.818 47.3179 105.97 47.7492C106.121 48.1804 106.168 48.6326 106.11 49.0794C106.052 49.5263 105.888 49.959 105.63 50.3524C105.371 50.7459 105.022 51.0923 104.602 51.3716L95.033 57.8019C94.6165 58.0844 94.1375 58.2946 93.6237 58.4204C93.1098 58.5461 92.5714 58.5849 92.0396 58.5345C91.5078 58.4841 90.9932 58.3455 90.5256 58.1267C90.058 57.9079 89.6468 57.6133 89.3157 57.2599L72.2684 39.3165C71.9312 38.9675 71.6799 38.5657 71.5288 38.1344C71.3778 37.7032 71.3301 37.251 71.3884 36.8042C71.4468 36.3573 71.6101 35.9246 71.8688 35.5312C72.1276 35.1377 72.4767 34.806 72.8959 34.5267Z" fill="#00796B"/>
<path fill-rule="evenodd" clip-rule="evenodd" d="M33.1705 66.9714V44.0037C33.1705 43.7007 33.0272 43.4101 32.7722 43.1958C32.5173 42.9816 32.1715 42.8612 31.8109 42.8612H19.5744C19.2139 42.8612 18.868 42.9816 18.6131 43.1958C18.3581 43.4101 18.2148 43.7007 18.2148 44.0037V66.9567C18.2148 67.2643 18.3717 67.5426 18.6158 67.7623C18.8696 67.9769 19.2144 68.098 19.5744 68.0992H31.8109C31.9894 68.0992 32.1662 68.0697 32.3312 68.0123C32.4961 67.9548 32.646 67.8707 32.7722 67.7646C32.8985 67.6585 32.9986 67.5326 33.067 67.3939C33.1353 67.2553 33.1705 67.1214 33.1705 66.9714Z" fill="#00796B"/>
<path fill-rule="evenodd" clip-rule="evenodd" d="M35.8896 46.7136L36.0291 64.9207C40.0382 66.488 58.3231 73.6507 61.3386 74.6321C62.2101 74.9251 63.3606 74.72 64.6156 74.2952C65.4575 74.0035 66.273 73.6608 67.0559 73.2699L62.489 71.146C62.1939 70.9902 61.9813 70.7451 61.895 70.4613C61.8087 70.1776 61.8554 69.8768 62.0254 69.6211C62.1954 69.3655 62.4758 69.1745 62.8086 69.0875C63.1414 69.0005 63.5012 69.0243 63.8138 69.1539L70.2283 72.1713C70.3341 72.2092 70.4337 72.2585 70.5246 72.3178L72.1283 73.0502C72.8604 73.1966 75.8933 73.5628 75.6144 70.7358L63.8312 65.5359C63.5367 65.385 63.3215 65.1457 63.2291 64.8664C63.1367 64.5872 63.1741 64.2889 63.3336 64.0319C63.4932 63.7749 63.763 63.5785 64.0884 63.4825C64.4138 63.3864 64.7705 63.3978 65.0862 63.5145L77.096 68.817C77.619 69.0513 78.4905 69.1099 79.3097 68.9195C79.7117 68.8352 80.0828 68.6692 80.3905 68.4361C80.6245 68.2568 80.7732 68.0122 80.8088 67.7477C80.8785 67.2643 80.6693 66.6345 80.0593 65.7995L67.2302 59.5743C66.9504 59.4117 66.7532 59.1668 66.6777 58.888C66.6022 58.6092 66.6539 58.3168 66.8224 58.0684C66.991 57.8201 67.2642 57.6339 67.5882 57.5465C67.9122 57.4592 68.2634 57.4772 68.5724 57.5968L81.4712 63.8514C82.5597 64.0463 83.6903 63.9958 84.7482 63.7049C85.2522 63.5532 85.6815 63.2645 85.9683 62.8846C86.1935 62.567 86.297 62.1988 86.2646 61.83C86.228 61.4231 86.0457 61.035 85.7417 60.7168C84.1381 58.9883 72.8081 53.3197 71.6751 52.7631C71.6072 52.7288 71.543 52.6896 71.4833 52.6459C61.5478 46.4645 58.2882 49.8921 55.447 52.8656C53.4599 54.9749 51.6297 56.8937 48.3352 56.5275C48.2827 56.5251 48.2303 56.5202 48.1784 56.5129C41.6244 55.5168 43.3326 47.6071 44.4307 44.0623C42.5133 44.5457 40.1951 45.0584 37.319 45.615L35.8896 46.4938V46.7136Z" fill="#F4F4F4"/>
<path fill-rule="evenodd" clip-rule="evenodd" d="M47.5337 43.242C47.0282 44.531 43.7163 53.4954 48.6144 54.2571H48.7015C50.4969 54.4475 51.8565 53.0121 53.3555 51.4447C56.9289 47.6803 61.06 43.3446 73.0523 50.7856C73.7844 51.1664 81.4365 54.9895 85.5502 57.5968C86.189 56.9438 86.8398 56.2993 87.5025 55.6633L73.7321 40.8837L73.4184 40.5468C57.8178 40.0195 55.9876 40.6054 51.1941 42.1288C50.1483 42.4657 48.9978 42.8319 47.5337 43.242ZM75.9458 39.5508L91.4418 55.8391C91.6652 56.0758 91.9911 56.2285 92.3482 56.2638C92.6968 56.2931 93.0454 56.2199 93.3592 56.0148L102.911 49.5991C103.05 49.5032 103.164 49.3852 103.248 49.2519C103.331 49.1187 103.383 48.9729 103.399 48.8228C103.441 48.5245 103.34 48.2246 103.12 47.9879L86.0557 30.0591C85.8292 29.8278 85.5037 29.6805 85.1493 29.6489C84.9707 29.6298 84.7894 29.6407 84.6158 29.6809C84.4423 29.7211 84.28 29.7899 84.1383 29.8833L74.5862 36.3137C74.311 36.504 74.1358 36.7775 74.0982 37.0753C74.0459 37.3683 74.1505 37.6612 74.3771 37.9103L75.022 38.584C75.1011 38.6452 75.1714 38.7141 75.2312 38.7891L75.9458 39.5508Z" fill="#00796B"/>
</svg>
