<svg width="119" height="100" viewBox="0 0 119 100" fill="none" xmlns="http://www.w3.org/2000/svg">
<path d="M70.4554 73.678C70.7089 73.4989 70.8759 73.2483 70.9251 72.9731C70.9743 72.6979 70.9022 72.4171 70.7225 72.1833C70.5428 71.9496 70.2677 71.779 69.9489 71.7036C69.6302 71.6282 69.2896 71.6532 68.9912 71.7738C67.5967 72.5355 66.0628 73.3118 64.6335 73.7952C63.361 74.2346 62.1932 74.4104 61.3216 74.1321C52.8509 70.9799 44.4254 67.7425 36.047 64.4206L35.8727 45.9938L37.3194 45.1149C44.7624 43.6795 48.4403 42.5076 51.1943 41.6288C55.9878 40.1054 57.818 39.5195 73.4186 40.0468L87.5027 55.1633C86.7761 55.8536 86.0671 56.5569 85.3761 57.2726C85.197 57.5085 85.1272 57.7916 85.18 58.068C85.2328 58.3443 85.4044 58.5948 85.6624 58.7719C85.9204 58.9489 86.2468 59.0402 86.5796 59.0284C86.9123 59.0167 87.2284 58.9027 87.4678 58.708C88.3571 57.803 89.2696 56.9142 90.2044 56.0421C90.4448 55.8456 90.5902 55.5813 90.6127 55.3001C90.6352 55.0189 90.5333 54.7406 90.3265 54.5188L75.2314 38.2891C75.1124 38.1424 74.9544 38.021 74.7698 37.9345C74.5852 37.8481 74.3792 37.799 74.1681 37.7911C57.452 37.2052 55.4649 37.835 50.2531 39.5049C45.8043 40.9428 41.2295 42.0888 36.5699 42.9324C36.3495 42.9573 36.1398 43.0277 35.9598 43.1375L33.8333 44.4558C33.6312 44.5572 33.464 44.701 33.3479 44.873C33.2318 45.045 33.1708 45.2394 33.1709 45.4372L33.3452 65.0651C33.3253 65.294 33.3877 65.5225 33.5245 65.7211C33.6613 65.9196 33.8661 66.079 34.1122 66.1784C34.1819 66.193 56.8593 75.1135 60.3455 76.256C61.9666 76.7833 63.7968 76.5343 65.627 75.9191C67.283 75.3625 68.9389 74.4983 70.4554 73.678Z" fill="white"/>
<path d="M47.5864 42.5956C47.6458 42.3261 47.588 42.0476 47.4234 41.811C47.2589 41.5743 46.9986 41.3953 46.69 41.3065C46.3815 41.2177 46.0452 41.2251 45.7426 41.3273C45.4399 41.4295 45.1911 41.6197 45.0415 41.8632C45.0415 41.8925 39.7251 54.7385 48.179 55.9983C48.2306 56.0105 48.283 56.0203 48.3359 56.0275C51.6477 56.3937 53.4605 54.4749 55.4651 52.3656C58.2889 49.3921 61.5659 45.9646 71.484 52.1459C71.5437 52.1896 71.6079 52.2288 71.6757 52.2631C72.8087 52.8197 84.1387 58.4884 85.7598 60.2168C86.0576 60.5368 86.2337 60.9247 86.2653 61.33C86.2976 61.6988 86.1942 62.067 85.969 62.3847C85.6793 62.7591 85.2503 63.0424 84.7488 63.1903C83.6979 63.4834 82.5738 63.539 81.4893 63.3514L68.5905 57.0968C68.2793 56.9572 67.9158 56.9246 67.5766 57.006C67.2374 57.0874 66.9491 57.2763 66.7726 57.533C66.5962 57.7897 66.5453 58.0939 66.6308 58.3815C66.7163 58.6691 66.9315 58.9175 67.2309 59.0743L80.304 65.4167C80.4485 65.49 80.6081 65.5397 80.7746 65.5632C82.8663 65.8562 84.5048 65.7243 85.7424 65.3142C86.744 65.013 87.6012 64.445 88.1833 63.6967C88.7654 62.9484 89.0406 62.0608 88.9671 61.1689C88.8932 60.3146 88.5168 59.4983 87.8863 58.8253C85.9341 56.7306 73.994 50.769 73.0353 50.2856C61.0604 42.8446 56.9293 47.1803 53.3385 50.9448C51.8569 52.5121 50.4973 53.9476 48.7019 53.7718H48.6148C43.3507 52.9222 47.5689 42.6249 47.5864 42.5956Z" fill="white"/>
<path d="M65.0861 63.0291C64.7761 62.9316 64.4343 62.9325 64.125 63.0317C63.8157 63.1308 63.5601 63.3214 63.4061 63.5677C63.2521 63.8139 63.2103 64.0989 63.2885 64.3693C63.3668 64.6396 63.5597 64.8766 63.8311 65.0359L75.8409 70.3384C76.8842 70.7343 78.039 70.8756 79.1733 70.7461C80.3076 70.6166 81.3757 70.2215 82.2555 69.606C82.96 69.053 83.4 68.303 83.493 67.4967C83.5671 66.1751 83.0858 64.8737 82.1334 63.8201C81.937 63.5676 81.6292 63.391 81.2778 63.3292C80.9264 63.2674 80.5601 63.3254 80.2596 63.4905C79.9591 63.6556 79.749 63.9143 79.6755 64.2096C79.6019 64.5049 79.671 64.8127 79.8674 65.0652C80.617 66.0173 80.8784 66.735 80.8087 67.2623C80.7691 67.5216 80.6208 67.7605 80.3904 67.9361C80.0827 68.1692 79.7116 68.3352 79.3097 68.4195C78.58 68.6025 77.7973 68.5662 77.0959 68.317L65.0861 63.0291Z" fill="white"/>
<path d="M63.8144 68.6538C63.5019 68.5243 63.142 68.5005 62.8092 68.5875C62.4764 68.6744 62.1961 68.8655 62.0261 69.1211C61.8561 69.3768 61.8094 69.6775 61.8956 69.9613C61.9819 70.2451 62.1946 70.4901 62.4897 70.6459L70.9611 74.6008C71.1058 74.6738 71.2654 74.7381 71.4317 74.7619C72.5473 74.967 79.6242 76.1095 78.2297 69.313C78.1673 69.0139 77.966 68.7478 77.6702 68.5734C77.3743 68.3989 77.0082 68.3304 76.6522 68.3829C76.2962 68.4353 75.9796 68.6044 75.7721 68.853C75.5645 69.1016 75.4829 69.4093 75.5454 69.7085C76.2426 73.1067 72.9133 72.6966 72.1289 72.5648L63.8144 68.6538ZM19.5751 40.0908H31.8115C32.9271 40.0908 33.9555 40.4863 34.6876 41.1015C35.4197 41.7167 35.8903 42.5662 35.8903 43.5183V66.4713C35.8926 66.9201 35.7891 67.3647 35.5858 67.7797C35.3826 68.1946 35.0835 68.5716 34.7059 68.8889C34.3283 69.2063 33.8797 69.4576 33.3859 69.6284C32.8921 69.7992 32.3629 69.8862 31.8289 69.8842H19.5751C19.0411 69.8862 18.5119 69.7992 18.0181 69.6284C17.5243 69.4576 17.0757 69.2063 16.6981 68.8889C16.3205 68.5716 16.0215 68.1946 15.8182 67.7797C15.6149 67.3647 15.5114 66.9201 15.5137 66.4713V43.5037C15.5114 43.055 15.6149 42.6103 15.8182 42.1953C16.0215 41.7804 16.3205 41.4034 16.6981 41.0861C17.0757 40.7688 17.5243 40.5175 18.0181 40.3466C18.5119 40.1758 19.0411 40.0888 19.5751 40.0908ZM31.8115 42.3758H19.5751C19.2145 42.3758 18.8687 42.4962 18.6137 42.7105C18.3587 42.9247 18.2155 43.2153 18.2155 43.5183V66.4713C18.2155 66.7789 18.3724 67.0572 18.6164 67.277C18.8703 67.4915 19.215 67.6127 19.5751 67.6139H31.8115C32.1721 67.6139 32.5179 67.4935 32.7729 67.2792C33.0279 67.0649 33.1711 66.7743 33.1711 66.4713V43.5037C33.1711 43.2007 33.0279 42.9101 32.7729 42.6958C32.5179 42.4815 32.1721 42.3758 31.8115 42.3758ZM84.1387 29.3833L74.5867 35.8136C74.3115 36.004 74.1362 36.2775 74.0986 36.5753C74.0463 36.8683 74.1509 37.1612 74.3775 37.4102L91.4422 55.3391C91.6656 55.5758 91.9915 55.7285 92.3486 55.7638C92.6972 55.7931 93.0459 55.7199 93.3596 55.5148L102.912 49.0991C103.05 49.0032 103.164 48.8852 103.248 48.7519C103.332 48.6187 103.383 48.4729 103.4 48.3228C103.441 48.0245 103.341 47.7246 103.121 47.4879L86.0561 29.5591C85.8296 29.3278 85.5041 29.1805 85.1497 29.1489C84.9711 29.1298 84.7898 29.1407 84.6163 29.1809C84.4427 29.2211 84.2804 29.2899 84.1387 29.3833ZM72.8959 34.0266L82.4654 27.6109C82.8807 27.3276 83.3589 27.1164 83.872 26.9895C84.3852 26.8625 84.9233 26.8224 85.455 26.8715C85.9868 26.9205 86.5017 27.0577 86.9699 27.2752C87.4381 27.4926 87.8503 27.786 88.1827 28.1382L105.23 46.067C105.567 46.4161 105.818 46.8179 105.97 47.2491C106.121 47.6804 106.168 48.1325 106.11 48.5794C106.052 49.0262 105.888 49.4589 105.63 49.8524C105.371 50.2458 105.022 50.5922 104.602 50.8715L95.033 57.3019C94.6165 57.5843 94.1375 57.7945 93.6237 57.9203C93.1098 58.0461 92.5714 58.0849 92.0396 58.0344C91.5078 57.984 90.9932 57.8454 90.5256 57.6266C90.058 57.4078 89.6468 57.1132 89.3157 56.7599L72.2684 38.8164C71.9312 38.4674 71.6799 38.0656 71.5288 37.6344C71.3778 37.2031 71.3301 36.751 71.3884 36.3041C71.4468 35.8572 71.6101 35.4246 71.8688 35.0311C72.1276 34.6377 72.4767 34.3059 72.8959 34.0266Z" fill="white"/>
<path fill-rule="evenodd" clip-rule="evenodd" d="M33.1705 66.4714V43.5037C33.1705 43.2007 33.0272 42.9101 32.7722 42.6958C32.5173 42.4816 32.1715 42.3612 31.8109 42.3612H19.5744C19.2139 42.3612 18.868 42.4816 18.6131 42.6958C18.3581 42.9101 18.2148 43.2007 18.2148 43.5037V66.4567C18.2148 66.7643 18.3717 67.0426 18.6158 67.2623C18.8696 67.4769 19.2144 67.598 19.5744 67.5992H31.8109C31.9894 67.5992 32.1662 67.5697 32.3312 67.5123C32.4961 67.4548 32.646 67.3707 32.7722 67.2646C32.8985 67.1585 32.9986 67.0326 33.067 66.8939C33.1353 66.7553 33.1705 66.6214 33.1705 66.4714Z" fill="white"/>
<path fill-rule="evenodd" clip-rule="evenodd" d="M35.8896 46.2136L36.0291 64.4207C40.0382 65.988 58.3231 73.1508 61.3386 74.1322C62.2101 74.4251 63.3606 74.2201 64.6156 73.7953C65.4575 73.5035 66.273 73.1609 67.0559 72.7699L62.489 70.646C62.1939 70.4902 61.9813 70.2451 61.895 69.9614C61.8087 69.6776 61.8554 69.3769 62.0254 69.1212C62.1954 68.8655 62.4758 68.6745 62.8086 68.5876C63.1414 68.5006 63.5012 68.5244 63.8138 68.6539L70.2283 71.6714C70.3341 71.7093 70.4337 71.7585 70.5246 71.8178L72.1283 72.5502C72.8604 72.6967 75.8933 73.0629 75.6144 70.2359L63.8312 65.0359C63.5367 64.885 63.3215 64.6457 63.2291 64.3665C63.1367 64.0872 63.1741 63.7889 63.3336 63.532C63.4932 63.275 63.763 63.0786 64.0884 62.9825C64.4138 62.8864 64.7705 62.8979 65.0862 63.0146L77.096 68.317C77.619 68.5514 78.4905 68.61 79.3097 68.4196C79.7117 68.3353 80.0828 68.1693 80.3905 67.9362C80.6245 67.7569 80.7732 67.5122 80.8088 67.2477C80.8785 66.7644 80.6693 66.1345 80.0593 65.2996L67.2302 59.0743C66.9504 58.9117 66.7532 58.6669 66.6777 58.3881C66.6022 58.1093 66.6539 57.8168 66.8224 57.5685C66.991 57.3201 67.2642 57.1339 67.5882 57.0466C67.9122 56.9593 68.2634 56.9772 68.5724 57.0969L81.4712 63.3514C82.5597 63.5463 83.6903 63.4958 84.7482 63.205C85.2522 63.0533 85.6815 62.7646 85.9683 62.3847C86.1935 62.067 86.297 61.6988 86.2646 61.3301C86.228 60.9231 86.0457 60.5351 85.7417 60.2168C84.1381 58.4884 72.8081 52.8197 71.6751 52.2631C71.6072 52.2288 71.543 52.1896 71.4833 52.1459C61.5478 45.9646 58.2882 49.3922 55.447 52.3657C53.4599 54.4749 51.6297 56.3938 48.3352 56.0276C48.2827 56.0252 48.2303 56.0203 48.1784 56.0129C41.6244 55.0169 43.3326 47.1071 44.4307 43.5624C42.5133 44.0458 40.1951 44.5584 37.319 45.115L35.8896 45.9939V46.2136Z" fill="#333333"/>
<path fill-rule="evenodd" clip-rule="evenodd" d="M47.5337 42.742C47.0282 44.031 43.7163 52.9954 48.6144 53.7571H48.7015C50.4969 53.9475 51.8565 52.5121 53.3555 50.9447C56.9289 47.1803 61.06 42.8446 73.0523 50.2856C73.7844 50.6664 81.4365 54.4895 85.5502 57.0968C86.189 56.4438 86.8398 55.7993 87.5025 55.1633L73.7321 40.3837L73.4184 40.0468C57.8178 39.5195 55.9876 40.1054 51.1941 41.6288C50.1483 41.9657 48.9978 42.3319 47.5337 42.742ZM75.9458 39.0508L91.4418 55.3391C91.6652 55.5758 91.9911 55.7285 92.3482 55.7638C92.6968 55.7931 93.0454 55.7199 93.3592 55.5148L102.911 49.0991C103.05 49.0032 103.164 48.8852 103.248 48.7519C103.331 48.6187 103.383 48.4729 103.399 48.3228C103.441 48.0245 103.34 47.7246 103.12 47.4879L86.0557 29.5591C85.8292 29.3278 85.5037 29.1805 85.1493 29.1489C84.9707 29.1298 84.7894 29.1407 84.6158 29.1809C84.4423 29.2211 84.28 29.2899 84.1383 29.3833L74.5862 35.8137C74.311 36.004 74.1358 36.2775 74.0982 36.5753C74.0459 36.8683 74.1505 37.1612 74.3771 37.4103L75.022 38.084C75.1011 38.1452 75.1714 38.2141 75.2312 38.2891L75.9458 39.0508Z" fill="white"/>
</svg>
