<svg width="301" height="281" viewBox="0 0 301 281" fill="none" xmlns="http://www.w3.org/2000/svg">
<g clip-path="url(#clip0_233_125)">
<path d="M206.938 130.722C232.912 130.722 253.969 111.065 253.969 86.8159C253.969 62.5672 232.912 42.9097 206.938 42.9097C180.963 42.9097 159.906 62.5672 159.906 86.8159C159.906 111.065 180.963 130.722 206.938 130.722Z" fill="#E0F7FA"/>
<path d="M206.938 130.722C232.912 130.722 253.969 111.065 253.969 86.8159C253.969 62.5672 232.912 42.9097 206.938 42.9097C180.963 42.9097 159.906 62.5672 159.906 86.8159C159.906 111.065 180.963 130.722 206.938 130.722Z" fill="#E0F7FA"/>
<path fill-rule="evenodd" clip-rule="evenodd" d="M197.531 7.78467V16.5659C197.531 18.8949 198.522 21.1284 200.286 22.7752C202.051 24.422 204.443 25.3472 206.938 25.3472C209.432 25.3472 211.825 24.422 213.589 22.7752C215.353 21.1284 216.344 18.8949 216.344 16.5659V7.78467C216.344 5.45574 215.353 3.22218 213.589 1.57538C211.825 -0.0714239 209.432 -0.996582 206.938 -0.996582C204.443 -0.996582 202.051 -0.0714239 200.286 1.57538C198.522 3.22218 197.531 5.45574 197.531 7.78467ZM260.149 24.7237L253.499 30.9321C251.785 32.5882 250.837 34.8064 250.859 37.1088C250.88 39.4112 251.869 41.6136 253.613 43.2417C255.357 44.8698 257.716 45.7934 260.183 45.8134C262.649 45.8334 265.025 44.9483 266.799 43.3488L273.449 37.1404C275.163 35.4842 276.111 33.2661 276.089 30.9637C276.068 28.6613 275.079 26.4587 273.335 24.8306C271.591 23.2025 269.232 22.2791 266.765 22.2591C264.299 22.2391 261.923 23.1241 260.149 24.7237ZM291.594 78.0347H282.188C279.693 78.0347 277.301 78.9598 275.537 80.6066C273.772 82.2534 272.781 84.487 272.781 86.8159C272.781 89.1449 273.772 91.3784 275.537 93.0252C277.301 94.672 279.693 95.5972 282.188 95.5972H291.594C294.089 95.5972 296.481 94.672 298.245 93.0252C300.009 91.3784 301 89.1449 301 86.8159C301 84.487 300.009 82.2534 298.245 80.6066C296.481 78.9598 294.089 78.0347 291.594 78.0347ZM160.377 30.9408L153.727 24.7324C151.953 23.1328 149.576 22.2478 147.11 22.2678C144.644 22.2878 142.285 23.2114 140.541 24.8395C138.797 26.4676 137.807 28.67 137.786 30.9724C137.765 33.2748 138.713 35.493 140.426 37.1491L147.076 43.3575C148.85 44.957 151.226 45.8422 153.693 45.8222C156.159 45.8022 158.518 44.8787 160.262 43.2505C162.006 41.6224 162.995 39.42 163.017 37.1176C163.038 34.8152 162.09 32.5969 160.377 30.9408ZM158.43 227.316C158.43 224.987 157.439 222.753 155.675 221.107C153.911 219.46 151.518 218.535 149.023 218.535H73.7734C71.2787 218.535 68.8862 219.46 67.1222 221.107C65.3582 222.753 64.3672 224.987 64.3672 227.316V271.222C64.3672 273.551 65.3582 275.785 67.1222 277.431C68.8862 279.078 71.2787 280.003 73.7734 280.003H149.023C151.518 280.003 153.911 279.078 155.675 277.431C157.439 275.785 158.43 273.551 158.43 271.222V227.316Z" fill="#E0F7FA"/>
<path fill-rule="evenodd" clip-rule="evenodd" d="M54.961 280.003H167.836C170.331 280.003 172.723 279.078 174.487 277.431C176.251 275.785 177.242 273.551 177.242 271.222C177.242 268.893 176.251 266.66 174.487 265.013C172.723 263.366 170.331 262.441 167.836 262.441H54.961C52.4663 262.441 50.0738 263.366 48.3098 265.013C46.5458 266.66 45.5548 268.893 45.5548 271.222C45.5548 273.551 46.5458 275.785 48.3098 277.431C50.0738 279.078 52.4663 280.003 54.961 280.003ZM101.992 192.191V236.097H18.8128C16.1126 236.094 13.4446 235.55 10.9898 234.5C8.53501 233.45 6.35076 231.919 4.58521 230.012C2.81967 228.105 1.51413 225.865 0.757133 223.446C0.000135688 221.026 -0.190612 218.483 0.197828 215.988L3.94152 192.191H101.992ZM218.856 192.191L222.59 215.988C222.98 218.483 222.79 221.027 222.034 223.447C221.277 225.868 219.972 228.107 218.206 230.015C216.44 231.923 214.255 233.453 211.8 234.503C209.344 235.552 206.675 236.096 203.975 236.097H120.805V192.191H218.856ZM216.09 174.628H120.805V148.285H211.951L216.09 174.628ZM10.8363 148.285H101.992V174.628H6.69755L10.8363 148.285ZM141.094 86.8159C141.086 94.9964 142.832 103.096 146.229 110.636C149.627 118.177 154.607 125.006 160.875 130.722H120.805V86.8159H141.094ZM101.992 130.722H13.5923L18.1355 101.832C18.7905 97.6596 21.0316 93.8466 24.4494 91.0896C27.8673 88.3326 32.2335 86.8156 36.7505 86.8159H101.992V130.722Z" fill="#E0F7FA"/>
</g>
<defs>
<clipPath id="clip0_233_125">
<rect width="301" height="281" fill="white"/>
</clipPath>
</defs>
</svg>
