<svg width="116" height="153" viewBox="0 0 116 153" fill="none" xmlns="http://www.w3.org/2000/svg">
<g clip-path="url(#clip0_79_349)">
<path d="M58.9092 63.5696C52.2632 56.6715 41.6363 56.1274 35.1733 62.3543C28.7103 68.5811 28.8586 79.2209 35.5045 86.1189C42.1505 93.0169 52.7774 93.561 59.2404 87.3342C65.7034 81.1074 65.5551 70.4676 58.9092 63.5696Z" fill="#E0F7FA"/>
<path d="M58.9092 63.5696C52.2632 56.6715 41.6363 56.1274 35.1733 62.3543C28.7103 68.5811 28.8586 79.2209 35.5045 86.1189C42.1505 93.0169 52.7774 93.561 59.2404 87.3342C65.7034 81.1074 65.5551 70.4676 58.9092 63.5696Z" fill="#E0F7FA"/>
<path fill-rule="evenodd" clip-rule="evenodd" d="M28.549 97.6368L30.8894 95.3819C31.5102 94.7838 31.8519 93.9471 31.8395 93.0557C31.8271 92.1644 31.4615 91.2915 30.8232 90.6289C30.1849 89.9664 29.3261 89.5686 28.4359 89.523C27.5456 89.4775 26.6967 89.7878 26.076 90.3859L23.7356 92.6408C23.1148 93.2389 22.7731 94.0756 22.7855 94.9669C22.7979 95.8583 23.1635 96.7312 23.8018 97.3937C24.4401 98.0563 25.2988 98.4541 26.1891 98.4996C27.0794 98.5452 27.9282 98.2348 28.549 97.6368ZM17.0423 76.6579L20.3985 76.8297C21.2783 76.8595 22.1121 76.5417 22.7203 75.9447C23.3285 75.3478 23.6624 74.5195 23.6501 73.6383C23.6378 72.7571 23.2803 71.8934 22.6546 71.2333C22.0289 70.5732 21.1851 70.1694 20.3049 70.1091L16.9486 69.9372C16.0688 69.9075 15.235 70.2253 14.6268 70.8222C14.0186 71.4192 13.6847 72.2475 13.697 73.1287C13.7093 74.0099 14.0668 74.8736 14.6925 75.5337C15.3182 76.1938 16.162 76.5975 17.0423 76.6579ZM23.2056 54.6174L25.6123 57.1154C26.2506 57.7779 27.1093 58.1757 27.9996 58.2213C28.8899 58.2669 29.7387 57.9565 30.3595 57.3584C30.9802 56.7604 31.322 55.9237 31.3095 55.0323C31.2971 54.141 30.9315 53.268 30.2932 52.6055L27.8865 50.1075C27.2482 49.445 26.3895 49.0472 25.4992 49.0016C24.609 48.956 23.7601 49.2664 23.1394 49.8644C22.5186 50.4625 22.1769 51.2992 22.1893 52.1906C22.2017 53.0819 22.5673 53.9549 23.2056 54.6174ZM44.2273 101.558L44.2741 104.918C44.3017 105.8 44.6737 106.658 45.3101 107.308C45.9464 107.958 46.7962 108.347 47.6764 108.392C48.5566 108.437 49.3967 108.134 50.0158 107.549C50.635 106.963 50.9836 106.142 50.9866 105.262L50.9398 101.901C50.9122 101.019 50.5402 100.161 49.9038 99.5113C49.2674 98.8615 48.4177 98.4721 47.5375 98.427C46.6573 98.382 45.8172 98.6848 45.1981 99.2704C44.5789 99.8559 44.2303 100.677 44.2273 101.558ZM97.0653 51.6476C96.4445 52.2457 96.1028 53.0824 96.1152 53.9737C96.1276 54.8651 96.4932 55.738 97.1315 56.4006L116.385 76.3845C117.023 77.047 117.882 77.4448 118.772 77.4904C119.663 77.536 120.512 77.2256 121.132 76.6276L132.835 65.3529C133.455 64.7549 133.797 63.9181 133.785 63.0268C133.772 62.1354 133.407 61.2625 132.768 60.6L113.515 40.616C112.876 39.9535 112.018 39.5557 111.127 39.5101C110.237 39.4645 109.388 39.7749 108.768 40.373L97.0653 51.6476Z" fill="#E0F7FA"/>
<path fill-rule="evenodd" clip-rule="evenodd" d="M137.582 65.5959L108.701 35.62C108.063 34.9575 107.204 34.5597 106.314 34.5141C105.423 34.4685 104.575 34.7789 103.954 35.3769C103.333 35.9749 102.991 36.8117 103.004 37.703C103.016 38.5944 103.382 39.4673 104.02 40.1298L132.901 70.1058C133.539 70.7683 134.398 71.1661 135.288 71.2117C136.178 71.2573 137.027 70.9469 137.648 70.3488C138.269 69.7508 138.61 68.9141 138.598 68.0227C138.585 67.1314 138.22 66.2584 137.582 65.5959ZM102.143 75.6553L113.846 64.3806L135.128 86.4704C135.818 87.1882 136.356 88.0366 136.704 88.9581C137.052 89.8796 137.203 90.8527 137.147 91.8113C137.09 92.77 136.827 93.6918 136.376 94.5141C135.925 95.3365 135.296 96.0403 134.531 96.5777L127.231 101.694L102.143 75.6553ZM72.2424 44.6202L77.6296 37.5176C78.1948 36.7734 78.9213 36.1705 79.7599 35.7498C80.5986 35.3292 81.5296 35.1007 82.4898 35.0798C83.4501 35.0589 84.417 35.2461 85.325 35.6288C86.233 36.0114 87.0608 36.5805 87.7522 37.2973L109.032 59.3846L97.33 70.6593L72.2424 44.6202ZM68.2691 49.8645L92.649 75.1692L85.6276 81.934L62.3066 57.7284L68.2691 49.8645ZM113.764 111.138L90.4411 86.9299L97.4624 80.1651L121.845 105.472L113.764 111.138ZM64.0531 92.3303C66.2355 90.2318 67.9475 87.6883 69.088 84.8498C70.2286 82.0112 70.7747 78.9349 70.6941 75.8024L80.9467 86.4438L69.2444 97.7185L64.0531 92.3303ZM85.7601 91.4398L108.378 114.916L99.5158 121.128C98.2362 122.026 96.6465 122.41 95.0372 122.21C93.4279 122.01 91.9064 121.24 90.7507 120.041L74.0578 102.714L85.7601 91.4398Z" fill="#E0F7FA"/>
</g>
<defs>
<clipPath id="clip0_79_349">
<rect width="111" height="104" fill="white" transform="translate(77.0146 152.094) rotate(-133.934)"/>
</clipPath>
</defs>
</svg>
