<svg width="101" height="101" viewBox="0 0 101 101" fill="none" xmlns="http://www.w3.org/2000/svg">
<path d="M75.5 41.4375C75.5067 37.314 74.4934 33.2527 72.5502 29.6157C70.6071 25.9786 67.7944 22.8787 64.3629 20.5921C60.9313 18.3056 56.9875 16.9033 52.8827 16.5103C48.7778 16.1173 44.6396 16.7457 40.8365 18.3397C37.0334 19.9336 33.6837 22.4435 31.0857 25.6458C28.4877 28.848 26.7222 32.6432 25.9464 36.6932C25.1706 40.7431 25.4087 44.9221 26.6394 48.8577C27.8701 52.7934 30.0551 56.3635 33 59.25C34.5419 60.6967 35.7786 62.4374 36.6373 64.3695C37.4961 66.3016 37.9594 68.3861 38 70.5V72.375H63V70.7188C63.0433 68.5552 63.5159 66.4218 64.3903 64.4423C65.2647 62.4628 66.5235 60.6767 68.0937 59.1875C70.439 56.8644 72.3009 54.0998 73.5721 51.0533C74.8433 48.0067 75.4985 44.7386 75.5 41.4375Z" stroke="#00796B" stroke-width="2" stroke-linecap="round" stroke-linejoin="round"/>
<path d="M38 81.75H63" stroke="#00796B" stroke-width="2" stroke-linecap="round" stroke-linejoin="round"/>
<path d="M41.125 84.875H59.875" stroke="#00796B" stroke-width="2" stroke-linecap="round" stroke-linejoin="round"/>
<path d="M50.5 88V84.875" stroke="#00796B" stroke-width="2" stroke-linecap="round" stroke-linejoin="round"/>
<path d="M50.5 39.3125L47.375 48.1562H53.625L50.5 57.2812" stroke="#0832FF" stroke-linecap="round" stroke-linejoin="round"/>
</svg>
