<svg width="76" height="79" viewBox="0 0 76 79" fill="none" xmlns="http://www.w3.org/2000/svg">
<path fill-rule="evenodd" clip-rule="evenodd" d="M59.5679 12.85C56.0857 9.1 51.7214 7.15 46.4286 7C41.1821 7.15 36.7714 9.1 33.2893 12.85C29.8071 16.6 28.0429 21.3 27.9036 27C27.9036 28.5 28.0429 29.95 28.3214 31.45L0 62V67L4.64286 72H13.9286L18.5714 67V62H23.2143V57H27.8571V52H37.1429L42.2036 46.45C43.5964 46.85 44.9429 47 46.4286 47C51.7214 46.85 56.0857 44.9 59.5679 41.15C63.05 37.4 64.8607 32.7 65 27C64.8607 21.3 63.05 16.6 59.5679 12.85ZM51.0714 28.9C47.4964 28.9 44.6643 25.85 44.6643 22C44.6643 18.15 47.4964 15.1 51.0714 15.1C54.6464 15.1 57.4786 18.15 57.4786 22C57.4786 25.85 54.6464 28.9 51.0714 28.9Z" fill="white"/>
</svg>
