<svg width="77" height="80" viewBox="0 0 77 80" fill="none" xmlns="http://www.w3.org/2000/svg">
<path fill-rule="evenodd" clip-rule="evenodd" d="M60.0679 13.35C56.5857 9.6 52.2214 7.65 46.9286 7.5C41.6821 7.65 37.2714 9.6 33.7893 13.35C30.3071 17.1 28.5429 21.8 28.4036 27.5C28.4036 29 28.5429 30.45 28.8214 31.95L0.5 62.5V67.5L5.14286 72.5H14.4286L19.0714 67.5V62.5H23.7143V57.5H28.3571V52.5H37.6429L42.7036 46.95C44.0964 47.35 45.4429 47.5 46.9286 47.5C52.2214 47.35 56.5857 45.4 60.0679 41.65C63.55 37.9 65.3607 33.2 65.5 27.5C65.3607 21.8 63.55 17.1 60.0679 13.35ZM51.5714 29.4C47.9964 29.4 45.1643 26.35 45.1643 22.5C45.1643 18.65 47.9964 15.6 51.5714 15.6C55.1464 15.6 57.9786 18.65 57.9786 22.5C57.9786 26.35 55.1464 29.4 51.5714 29.4Z" fill="#00796B"/>
</svg>
