<svg width="20" height="16" viewBox="0 0 20 16" fill="none" xmlns="http://www.w3.org/2000/svg">
<path d="M1.77778 9.25075C2.3454 9.25075 2.80555 8.6911 2.80555 8.00074C2.80555 7.31038 2.3454 6.75073 1.77778 6.75073C1.21015 6.75073 0.75 7.31038 0.75 8.00074C0.75 8.6911 1.21015 9.25075 1.77778 9.25075Z" fill="white"/>
<path d="M18.2851 6.75073H5.82841C5.29485 6.75073 4.8623 7.2768 4.8623 7.92574V8.07574C4.8623 8.72468 5.29485 9.25075 5.82841 9.25075H18.2851C18.8186 9.25075 19.2512 8.72468 19.2512 8.07574V7.92574C19.2512 7.2768 18.8186 6.75073 18.2851 6.75073Z" fill="white"/>
<path d="M18.2838 13.0001H1.71611C1.18254 13.0001 0.75 13.5262 0.75 14.1751V14.3251C0.75 14.9741 1.18254 15.5001 1.71611 15.5001H18.2838C18.8174 15.5001 19.25 14.9741 19.25 14.3251V14.1751C19.25 13.5262 18.8174 13.0001 18.2838 13.0001Z" fill="white"/>
<path d="M18.2838 0.500122H1.71611C1.18254 0.500122 0.75 1.02619 0.75 1.67513V1.82513C0.75 2.47407 1.18254 3.00014 1.71611 3.00014H18.2838C18.8174 3.00014 19.25 2.47407 19.25 1.82513V1.67513C19.25 1.02619 18.8174 0.500122 18.2838 0.500122Z" fill="white"/>
</svg>
