<svg width="295" height="278" viewBox="0 0 295 278" fill="none" xmlns="http://www.w3.org/2000/svg">
<path fill-rule="evenodd" clip-rule="evenodd" d="M118.204 256.683L118.015 253.761L183.32 240.029L183.437 243.819L196.284 228.636L192.386 229.455L192.45 203.442L223.045 197.009L231.965 186.467L192.326 194.801L191.529 168.97L258.726 154.84L267.647 144.297L265.325 144.785L264.528 118.953L285.77 114.486L286.021 122.582L294.941 112.04L294.824 108.249L294.707 104.458L285.255 97.7793L285.504 105.875L259.668 111.308L190.2 125.917L189.402 100.084L258.872 85.4759L265.786 84.0218L253.946 75.6548L254.013 77.8315L189.137 91.4732L188.339 65.6419L227.979 57.3056L218.527 50.6264L188.074 57.031L187.276 31.1983L190.172 30.5896L177.741 21.8051L177.825 24.5193L111.226 38.5237L111.142 35.8096L99.4098 49.6751L102.305 49.0664L103.102 74.8989L72.6491 81.3021L63.7285 91.8448L103.368 83.5097L104.166 109.341L36.9675 123.472L28.0472 134.014L32.0912 133.164L32.8885 158.996L9.92337 163.825L9.67349 155.729L0.753206 166.272L0.870119 170.062L0.987199 173.853L10.439 180.532L10.1891 172.436L37.7473 166.641L105.494 152.395L106.292 178.227L38.5445 192.473L29.9075 194.289L43.5204 203.909L43.4033 200.118L106.558 186.838L107.354 212.67L75.7776 219.31L67.7149 221.006L77.167 227.685L107.62 221.28L108.418 247.113L105.522 247.722L118.204 256.683ZM138.604 271.099L148.055 277.777L152.099 276.927L156.143 276.077L165.063 265.534L151.834 268.316L138.604 271.099ZM139.551 2.23502L130.631 12.7767L143.861 9.99486L157.091 7.21298L147.639 0.533948L143.595 1.38399L139.551 2.23502ZM182.342 170.902L183.139 196.733L116.54 210.738L115.744 184.906L182.342 170.902ZM116.806 219.349L117.604 245.181L183.196 231.388L183.26 205.375L116.806 219.349ZM255.342 120.885L256.138 146.717L191.263 160.359L190.465 134.526L255.342 120.885ZM181.28 136.459L182.076 162.291L115.478 176.296L114.68 150.464L147.98 143.46L181.28 136.459ZM147.714 134.851L114.414 141.853L113.617 116.02L180.216 102.016L181.014 127.848L147.714 134.851ZM41.2773 131.232L104.431 117.952L105.228 143.785L42.0746 157.065L41.2773 131.232ZM179.95 93.4049L113.352 107.41L112.554 81.5779L179.153 67.5737L179.95 93.4049ZM178.887 58.9627L112.288 72.9671L111.492 47.1346L178.09 33.1301L178.887 58.9627Z" fill="#E0F7FA"/>
</svg>
