<svg width="287" height="262" viewBox="0 0 287 262" fill="none" xmlns="http://www.w3.org/2000/svg">
<path d="M183.641 157.578L183.18 158.462L182.294 158.003C168.278 150.724 155.327 141.841 143.753 131.567L143.742 131.557L143.73 131.547C132.51 120.949 122.805 109.086 114.849 96.2418L114.232 95.2449L115.314 94.7926L121.907 92.0365C128.057 89.2762 132.852 84.543 135.395 78.7684C137.938 72.9938 138.058 66.568 135.734 60.7185C133.437 55.0096 131.552 49.1681 130.092 43.2318M183.641 157.578L130.092 43.2318M183.641 157.578L186.796 151.539C186.797 151.537 186.797 151.536 186.798 151.534C189.793 145.937 194.955 141.528 201.313 139.181C207.672 136.833 214.758 136.721 221.203 138.867L183.641 157.578ZM130.092 43.2318C129.367 40.3107 128.788 37.2627 128.354 34.3504M130.092 43.2318C130.092 43.2325 130.093 43.2332 130.093 43.2339L128.354 34.3504M128.354 34.3504C126.655 25.3539 121.503 17.1873 113.797 11.3306C106.083 5.46862 96.3246 2.3124 86.2772 2.44616L86.2639 2.44633L43.0438 2.44625H43.0426C37.1007 2.43912 31.2265 3.58209 25.8057 5.79797C20.3854 8.01363 15.5442 11.2505 11.5965 15.2917C7.56761 19.4424 4.57341 24.3364 2.81327 29.6351C1.05309 34.9339 0.56712 40.5163 1.38718 46.0006L1.38818 46.0072C9.15922 100.49 36.3466 151.119 78.7555 190.036C121.254 228.863 176.565 253.779 236.12 260.906C237.93 261.032 239.747 261.031 241.556 260.905L241.592 260.902L241.628 260.902C251.995 260.916 261.992 257.433 269.712 251.135C274.128 247.518 277.653 243.092 280.062 238.152C282.471 233.211 283.71 227.864 283.703 222.461V222.459L283.703 183.025C283.703 183.023 283.703 183.022 283.703 183.021C283.626 174.193 280.225 165.646 274.053 158.826C267.896 152.024 259.357 147.356 249.863 145.624C247.262 145.611 244.555 145.006 242.03 144.441C241.384 144.297 240.749 144.155 240.132 144.026C240.131 144.026 240.131 144.026 240.13 144.026L240.334 143.047C233.942 141.738 227.657 140.025 221.524 137.919L128.354 34.3504ZM257.99 223.514L257.99 223.496L257.99 223.479L256.698 182.881C256.778 179.596 255.616 176.399 253.426 173.829C251.232 171.253 248.145 169.468 244.7 168.757L244.666 168.751L244.632 168.746C240.773 168.222 236.777 167.569 233.074 166.786L233.065 166.784C225.405 165.238 217.866 163.229 210.497 160.768L209.668 160.491L209.283 161.276L200.24 179.675C200.24 179.677 200.239 179.678 200.239 179.679C198.778 182.59 196.102 184.879 192.771 186.014L192.756 186.019L192.741 186.024C189.479 187.251 185.817 187.254 182.553 186.032C138.508 167.198 103.122 134.788 82.5715 94.4948C81.2621 91.5599 81.2654 88.2767 82.5814 85.3435L82.5887 85.3272L82.5954 85.3107C83.8147 82.3113 86.2954 79.85 89.5231 78.4934L89.5319 78.4896L109.634 69.8121L110.54 69.4212L110.161 68.5104C107.443 61.9658 105.252 55.2485 103.605 48.4123L103.605 48.4107C103.395 47.5486 103.162 46.6806 102.931 45.8228L102.899 45.7035C102.656 44.8024 102.417 43.9119 102.206 43.0242C101.782 41.2456 101.479 39.5256 101.479 37.8654V37.7442L101.45 37.6266C100.66 34.4155 98.6846 31.5738 95.8834 29.5732C93.0867 27.5757 89.6331 26.5337 86.1092 26.6102H43.0472C40.892 26.5956 38.7557 26.9989 36.778 27.7957C34.7999 28.5926 33.022 29.7666 31.5641 31.2453C30.0261 32.7916 28.8765 34.6379 28.2054 36.6535C27.5349 38.6674 27.3605 40.795 27.6964 42.8808C34.7975 92.3866 59.5465 138.346 98.0807 173.63L98.0832 173.632C136.584 208.644 186.573 231.087 240.351 237.519C242.589 237.822 244.872 237.665 247.038 237.061C249.205 236.456 251.205 235.415 252.891 234.01C254.483 232.693 255.764 231.081 256.644 229.273C257.525 227.464 257.985 225.501 257.99 223.514ZM164.663 25.2954H164.624L164.585 25.2984C161.015 25.5763 157.482 24.5422 154.763 22.4433C152.048 20.3465 150.376 17.3672 150.079 14.1728C149.783 10.9798 150.881 7.79469 153.162 5.31856C155.437 2.84793 158.706 1.28601 162.261 1H162.28H162.299H162.319H162.338H162.357H162.377H162.396H162.416H162.435H162.454H162.474H162.493H162.513H162.532H162.551H162.571H162.59H162.61H162.629H162.648H162.668H162.687H162.707H162.726H162.746H162.765H162.784H162.804H162.823H162.843H162.862H162.882H162.901H162.921H162.94H162.96H162.979H162.998H163.018H163.037H163.057H163.076H163.096H163.115H163.135H163.154H163.174H163.193H163.213H163.232H163.252H163.271H163.291H163.31H163.33H163.349H163.369H163.388H163.408H163.428H163.447H163.467H163.486H163.506H163.525H163.545H163.564H163.584H163.603H163.623H163.642H163.662H163.682H163.701H163.721H163.74H163.76H163.779H163.799H163.819H163.838H163.858H163.877H163.897H163.917H163.936H163.956H163.975H163.995H164.014H164.034H164.054H164.073H164.093H164.112H164.132H164.152H164.171H164.191H164.211H164.23H164.25H164.269H164.289H164.309H164.328H164.348H164.368H164.387H164.407H164.426H164.446H164.466H164.485H164.505H164.525H164.544H164.564H164.584H164.603H164.623H164.643H164.662H164.682H164.702H164.721H164.741H164.761H164.78H164.8H164.82H164.839H164.859H164.879H164.898H164.918H164.938H164.957H164.977H164.997H165.016H165.036H165.056H165.076H165.095H165.115H165.135H165.154H165.174H165.194H165.213H165.233H165.253H165.273H165.292H165.312H165.332H165.351H165.371H165.391H165.411H165.43H165.45H165.47H165.489H165.509H165.529H165.549H165.568H165.588H165.608H165.627H165.647H165.667H165.687H165.706H165.726H165.746H165.766H165.785H165.805H165.825H165.845H165.864H165.884H165.904H165.924H165.943H165.963H165.983H166.002H166.022H166.042H166.062H166.081H166.101H166.121H166.141H166.16H166.18H166.2H166.22H166.239H166.259H166.279H166.299H166.319H166.338H166.358H166.378H166.398H166.417H166.437H166.457H166.477H166.496H166.516H166.536H166.556H166.575H166.595H166.615H166.635H166.654H166.674H166.694H166.714H166.734H166.753H166.773H166.793H166.813H166.832H166.852H166.872H166.892H166.911H166.931H166.951H166.971H166.991H167.01H167.03H167.05H167.07H167.089H167.109H167.129H167.149H167.168H167.188H167.208H167.228H167.248H167.267H167.287H167.307H167.327H167.346H167.366H167.386H167.406H167.425H167.445H167.465H167.485H167.505H167.524H167.544H167.564H167.584H167.603H167.623H167.643H167.663H167.682H167.702H167.722H167.742H167.762H167.781H167.801H167.821H167.841H167.86H167.88H167.9H167.92H167.939H167.959H167.979H167.999H168.018H168.038H168.058H168.078H168.098H168.117H168.137H168.157H168.177H168.196H168.216H168.236H168.256H168.275H168.295H168.315H168.335H168.354H168.374H168.394H168.414H168.433H168.453H168.473H168.493H168.512H168.532H168.552H168.572H168.591H168.611H168.631H168.651H168.67H168.69H168.71H168.729H168.749H168.769H168.789H168.808H168.828H168.848H168.868H168.887H168.907H168.927H168.947H168.966H168.986H169.006H169.025H169.045H169.065H169.085H169.104H169.124H169.144H169.163H169.183H169.203H169.223H169.242H169.262H169.282H169.301H169.321H169.341H169.36H169.38H169.4H169.42H169.439H169.459H169.479H169.498H169.518H169.538H169.557H169.577H169.597H169.616H169.636H169.656H169.675H169.695H169.715H169.734H169.754H169.774H169.793H169.813H169.833H169.852H169.872H169.892H169.911H169.931H169.951H169.97H169.99H170.01H170.029H170.049H170.069H170.088H170.108H170.128H170.147H170.167H170.186H170.206H170.226H170.245H170.265H170.285H170.304H170.324H170.343H170.363H170.383H170.402H170.422H170.441H170.461H170.481H170.5H170.52H170.539H170.559H170.579H170.598H170.618H170.637H170.657H170.676H170.696H170.716H170.735H170.755H170.774H170.794H170.813H170.833H170.853H170.872H170.892H170.911H170.931H170.95H170.97H170.989H171.009H171.029H171.048H171.068H171.087H171.107H171.126H171.146H171.165H171.185H171.204H171.224H171.243H171.263H171.282H171.302H171.321H171.341H171.36H171.38H171.399H171.419H171.438H171.458H171.477H171.497H171.516H171.536H171.555H171.574H171.594H171.613H171.633H171.652H171.672H171.691H171.711H171.73H171.749H171.769H171.788H171.808H171.827H171.847H171.866H171.885H171.905H171.924H171.944H171.963H171.982H172.002H172.021H172.041H172.06H172.079H172.099H172.118H172.138H172.157H172.176H172.196H172.215H172.234H172.254H172.273C202.475 1.03471 231.412 12.0457 252.73 31.5905C274.046 51.1328 286 77.6033 286 105.182V105.199V105.217V105.235V105.253V105.27V105.288V105.306V105.323V105.341V105.359V105.377V105.394V105.412V105.43V105.448V105.465V105.483V105.501V105.519V105.537V105.554V105.572V105.59V105.608V105.625V105.643V105.661V105.679V105.697V105.714V105.732V105.75V105.768V105.786V105.804V105.821V105.839V105.857V105.875V105.893V105.91V105.928V105.946V105.964V105.982V106V106.018V106.035V106.053V106.071V106.089V106.107V106.125V106.143V106.16V106.178V106.196V106.214V106.232V106.25V106.268V106.285V106.303V106.321V106.339V106.357V106.375V106.393V106.411V106.429V106.447V106.464V106.482V106.5V106.518V106.536V106.554V106.572V106.59V106.608V106.626V106.644V106.662V106.679V106.697V106.715V106.733V106.751V106.769V106.787V106.805V106.823V106.841V106.859V106.877V106.895V106.913V106.931V106.949V106.967V106.985V107.002V107.02V107.038V107.056V107.074V107.092V107.11V107.128V107.146V107.164V107.182V107.2V107.218V107.236V107.254V107.272V107.29V107.308V107.326V107.344V107.362V107.38V107.398V107.416V107.434V107.452V107.47V107.488V107.506V107.524V107.542V107.56V107.578V107.596V107.614V107.632V107.65V107.668V107.686V107.704V107.722V107.74V107.758V107.776V107.795V107.813V107.831V107.849V107.867V107.885V107.903V107.921V107.939V107.957V107.975V107.993V108.011V108.029V108.047V108.065V108.083V108.101V108.119V108.137V108.155V108.173V108.192V108.21V108.228V108.246V108.264V108.282V108.3V108.318V108.336V108.354V108.372V108.39V108.408V108.426V108.444V108.463V108.481V108.499V108.517V108.535V108.553V108.571V108.589V108.607V108.625V108.643V108.661V108.679V108.698V108.716V108.734V108.752V108.77V108.788V108.806V108.824V108.842V108.86V108.878V108.896V108.915V108.933V108.951V108.969V108.987V109.005V109.023V109.041V109.059V109.077V109.095V109.114V109.132V109.15V109.168V109.186V109.204V109.222V109.24V109.258V109.276V109.295V109.313V109.331V109.349V109.367V109.385V109.403V109.421V109.439V109.457V109.476V109.494V109.512V109.53V109.548V109.566V109.584V109.602V109.62V109.638V109.657V109.675V109.693V109.711V109.729V109.747V109.765V109.783V109.801V109.82V109.838V109.856V109.874V109.892V109.91V109.928V109.946V109.964V109.982V110.001V110.019V110.037V110.055V110.073V110.091V110.109V110.127V110.145V110.163V110.182V110.2V110.218V110.236V110.254V110.272V110.29V110.308V110.326V110.344V110.363V110.381V110.399V110.417V110.435V110.453V110.471V110.489V110.507V110.525V110.544V110.562V110.58V110.598V110.616V110.634V110.652V110.67V110.688V110.706V110.724V110.743V110.761V110.779V110.797V110.815V110.833V110.851V110.869V110.887V110.905V110.923V110.941V110.96V110.978V110.996V111.014V111.032V111.05V111.068V111.086V111.104V111.122V111.14V111.158V111.176V111.194V111.213V111.231V111.249V111.267V111.285V111.303V111.321V111.339V111.357V111.375V111.393V111.411V111.429V111.447V111.465V111.483V111.501V111.52V111.538V111.556V111.574V111.592V111.61V111.628V111.646V111.664V111.682V111.7V111.718V111.736V111.754V111.772V111.79V111.808V111.826V111.844V111.862V111.88V111.898V111.916V111.934V111.952V111.97V111.988V112.006V112.024V112.042V112.06V112.078V112.096V112.114V112.132V112.151V112.169V112.187V112.205V112.223V112.241V112.258V112.276V112.294V112.312V112.33V112.348V112.366V112.384V112.402V112.42V112.438V112.456V112.474V112.492V112.51V112.528V112.546V112.564V112.582V112.6V112.618V112.636V112.654V112.672V112.69V112.708V112.726V112.744V112.762V112.78V112.798V112.815V112.833V112.851V112.869V112.887V112.905V112.923V112.941V112.959V112.977V112.995V113.013V113.031V113.048V113.066V113.084V113.102V113.12V113.138V113.156V113.174V113.192V113.21V113.227V113.245V113.263V113.281V113.299V113.317V113.335V113.353V113.371V113.388V113.406V113.424V113.442V113.46V113.478V113.496V113.513V113.531V113.549V113.567V113.585V113.603V113.62V113.638V113.656V113.674V113.692V113.71V113.727V113.745V113.763V113.781V113.799V113.817V113.834V113.852V113.87V113.888V113.906V113.923V113.941V113.959V113.977V113.994V114.012V114.03V114.048V114.066V114.083V114.101V114.119V114.137V114.154V114.172V114.19V114.208V114.225V114.243V114.261V114.279V114.296V114.314V114.332V114.335C285.692 117.319 284.178 120.112 281.723 122.158C279.253 124.216 276.014 125.362 272.645 125.349H272.641H271.533C267.998 125.059 264.751 123.503 262.49 121.046C260.223 118.583 259.13 115.416 259.422 112.241L259.426 112.196V112.15V112.136V112.122V112.108V112.094V112.081V112.067V112.053V112.039V112.025V112.011V111.998V111.984V111.97V111.956V111.942V111.928V111.915V111.901V111.887V111.873V111.859V111.846V111.832V111.818V111.804V111.79V111.777V111.763V111.749V111.735V111.721V111.708V111.694V111.68V111.666V111.653V111.639V111.625V111.611V111.598V111.584V111.57V111.556V111.543V111.529V111.515V111.501V111.488V111.474V111.46V111.446V111.433V111.419V111.405V111.391V111.378V111.364V111.35V111.337V111.323V111.309V111.295V111.282V111.268V111.254V111.241V111.227V111.213V111.2V111.186V111.172V111.159V111.145V111.131V111.118V111.104V111.09V111.077V111.063V111.049V111.036V111.022V111.008V110.995V110.981V110.967V110.954V110.94V110.926V110.913V110.899V110.885V110.872V110.858V110.844V110.831V110.817V110.804V110.79V110.776V110.763V110.749V110.735V110.722V110.708V110.695V110.681V110.667V110.654V110.64V110.627V110.613V110.599V110.586V110.572V110.559V110.545V110.531V110.518V110.504V110.491V110.477V110.463V110.45V110.436V110.423V110.409V110.396V110.382V110.368V110.355V110.341V110.328V110.314V110.3V110.287V110.273V110.26V110.246V110.233V110.219V110.206V110.192V110.178V110.165V110.151V110.138V110.124V110.111V110.097V110.084V110.07V110.056V110.043V110.029V110.016V110.002V109.989V109.975V109.962V109.948V109.935V109.921V109.908V109.894V109.881V109.867V109.853V109.84V109.826V109.813V109.799V109.786V109.772V109.759V109.745V109.732V109.718V109.705V109.691V109.678V109.664V109.651V109.637V109.624V109.61V109.597V109.583V109.57V109.556V109.543V109.529V109.516V109.502V109.489V109.475V109.462V109.448V109.435V109.421V109.408V109.394V109.381V109.367V109.354V109.34V109.327V109.313V109.3V109.286V109.273V109.259V109.246V109.232V109.219V109.205V109.192V109.178V109.165V109.151V109.138V109.124V109.111V109.097V109.084V109.07V109.057V109.043V109.03V109.016V109.003V108.989V108.976V108.962V108.949V108.935V108.922V108.908V108.895V108.881V108.868V108.854V108.841V108.828V108.814V108.801V108.787V108.774V108.76V108.747V108.733V108.72V108.706V108.693V108.679V108.666V108.652V108.639V108.625V108.612V108.598V108.585V108.571V108.558V108.544V108.531V108.517V108.504V108.49V108.477V108.464V108.45V108.437V108.423V108.41V108.396V108.383V108.369V108.356V108.342V108.329V108.315V108.302V108.288V108.275V108.261V108.248V108.234V108.221V108.207V108.194V108.18V108.167V108.153V108.14V108.126V108.113V108.099V108.086V108.072V108.059V108.045V108.032V108.018V108.005V107.991V107.978V107.964V107.951V107.937V107.924V107.91V107.897V107.883V107.87V107.856V107.843V107.829V107.816V107.802V107.789V107.775V107.762V107.748V107.735V107.721V107.708V107.694V107.681V107.667V107.654V107.64V107.627V107.613V107.6V107.586V107.573V107.559V107.546V107.532V107.519V107.505V107.492V107.478V107.465V107.451V107.437V107.424V107.41V107.397V107.383V107.37V107.356V107.343V107.329V107.316V107.302V107.289V107.275V107.261V107.248V107.234V107.221V107.207V107.194V107.18V107.167V107.153V107.14V107.126V107.112V107.099V107.085V107.072V107.058V107.045V107.031V107.017V107.004V106.99V106.977V106.963V106.95V106.936V106.922V106.909V106.895V106.882V106.868V106.855V106.841V106.827V106.814V106.8V106.787V106.773V106.759V106.746V106.732V106.719V106.705V106.691V106.678V106.664V106.651V106.637V106.623V106.61V106.596V106.582V106.569V106.555V106.542V106.528V106.514V106.501V106.487V106.473V106.46V106.446V106.433V106.419V106.405V106.392V106.378V106.364V106.351V106.337V106.323V106.31V106.296V106.282V106.269V106.255V106.241V106.228V106.214V106.2V106.187V106.173V106.159V106.146V106.132V106.118V106.105V106.091V106.077V106.063V106.05V106.036V106.022V106.009V105.995V105.981V105.967V105.954V105.94V105.926V105.913V105.899V105.885V105.871V105.858V105.844V105.83V105.816V105.803V105.789V105.775V105.762V105.748V105.734V105.72V105.706V105.693V105.679V105.665V105.651V105.638V105.624V105.61V105.596V105.583V105.569V105.555V105.541V105.527V105.514V105.5V105.486V105.472V105.458V105.445V105.431V105.417V105.403V105.389V105.375V105.362V105.348V105.334V105.32V105.306V105.292V105.279V105.265V105.251V105.237V105.223V105.209V105.195V105.182C259.426 83.9646 250.22 63.6365 233.868 48.6631C217.518 33.6924 195.36 25.2954 172.273 25.2954H164.663ZM205.872 113.741C203.375 111.455 201.991 108.374 201.991 105.182C201.991 97.9126 198.836 90.9611 193.255 85.8504C187.676 80.7424 180.128 77.8862 172.273 77.8862C168.703 77.8862 165.295 76.5868 162.795 74.2978C160.298 72.0115 158.914 68.9304 158.914 65.7385C158.914 62.5466 160.298 59.4655 162.795 57.1792C165.295 54.8902 168.703 53.5908 172.273 53.5908C187.268 53.5908 201.632 59.0458 212.211 68.7318C222.786 78.4152 228.708 91.5287 228.708 105.182C228.708 108.374 227.324 111.455 224.827 113.741C222.328 116.03 218.92 117.329 215.35 117.329C211.78 117.329 208.372 116.03 205.872 113.741Z" stroke="#00796B" stroke-opacity="0.2" stroke-width="2"/>
</svg>
