<svg width="65" height="66" viewBox="0 0 65 66" fill="none" xmlns="http://www.w3.org/2000/svg">
<g clip-path="url(#clip0_120_492)">
<path d="M47.1253 60.0834C36.068 60.069 25.4676 55.6702 17.6489 47.8514C9.83018 40.0327 5.43132 29.4323 5.41699 18.375C5.41699 15.0708 6.72956 11.902 9.06595 9.56562C11.4023 7.22923 14.5712 5.91666 17.8753 5.91666C18.575 5.91133 19.2735 5.97483 19.9607 6.10624C20.6251 6.20456 21.2783 6.36784 21.9107 6.59374C22.3556 6.74982 22.752 7.01931 23.0607 7.37557C23.3695 7.73182 23.5799 8.16249 23.6712 8.625L27.3816 24.875C27.4816 25.3161 27.4695 25.7752 27.3465 26.2104C27.2235 26.6457 26.9935 27.0432 26.6774 27.3667C26.3253 27.7458 26.2982 27.7729 22.967 29.5063C25.6347 35.3586 30.3152 40.0584 36.1566 42.75C37.917 39.3917 37.9441 39.3646 38.3232 39.0125C38.6467 38.6964 39.0442 38.4664 39.4795 38.3434C39.9147 38.2204 40.3738 38.2083 40.8149 38.3083L57.0649 42.0188C57.5126 42.1226 57.9265 42.3387 58.2676 42.6467C58.6088 42.9547 58.8659 43.3444 59.0149 43.7792C59.2435 44.422 59.4156 45.0836 59.5295 45.7563C59.6385 46.4369 59.6928 47.1253 59.692 47.8146C59.642 51.1046 58.2926 54.2413 55.9381 56.5399C53.5837 58.8385 50.4156 60.1124 47.1253 60.0834Z" fill="white"/>
</g>
<defs>
<clipPath id="clip0_120_492">
<rect width="65" height="65" fill="white" transform="translate(0 0.5)"/>
</clipPath>
</defs>
</svg>
