<svg width="117" height="146" viewBox="0 0 117 146" fill="none" xmlns="http://www.w3.org/2000/svg">
<g clip-path="url(#clip0_79_310)">
<path d="M35.5394 36.6712L33.1633 36.6739C32.5692 36.6746 32.0078 37.176 31.9977 37.7812C32.0304 38.2819 32.3092 38.7615 32.716 38.928C32.8178 38.9696 33.0212 39.0529 33.1656 38.9901L35.5418 38.9874C36.1358 38.9867 36.6972 38.4852 36.7073 37.8801C36.6156 37.2333 36.1334 36.6705 35.5394 36.6712ZM73.1527 38.7773C73.2544 38.8189 73.4578 38.9022 73.6023 38.8394L75.9784 38.8367C76.5724 38.836 77.1338 38.3346 77.1439 37.7294C77.154 37.1243 76.6717 36.5614 76.0777 36.5621L73.7016 36.5648C73.1076 36.5655 72.5462 37.0669 72.5361 37.6721C72.467 38.1312 72.7458 38.6109 73.1527 38.7773ZM53.7053 18.3919C53.7379 18.8927 53.9576 19.2263 54.3645 19.3927C54.4663 19.4344 54.6697 19.5176 54.8141 19.4548C55.4082 19.4541 55.9696 18.9527 55.9796 18.3475L56.02 15.927C56.03 15.3218 55.5478 14.759 54.9538 14.7596C54.3597 14.7603 53.7983 15.2618 53.7883 15.8669L53.7053 18.3919ZM38.9184 23.1873L40.6112 24.8547C40.6702 25.0007 40.8737 25.084 40.9754 25.1256C41.3823 25.2921 41.8746 25.2498 42.1471 24.8738C42.5641 24.4352 42.6169 23.7256 42.1937 23.3088L40.5008 21.6414C40.0776 21.2245 39.3819 21.1836 38.9649 21.6223C38.4462 22.0193 38.3934 22.7289 38.9184 23.1873ZM67.4442 24.8657C67.5032 25.0117 67.7066 25.095 67.8084 25.1366C68.2153 25.303 68.7076 25.2607 68.9801 24.8848L70.648 23.1301C71.065 22.6914 71.1177 21.9819 70.6945 21.565C70.2713 21.1482 69.5756 21.1072 69.1586 21.5459L67.4907 23.3007C66.972 23.6977 67.0637 24.3445 67.4442 24.8657ZM41.6547 50.7492C41.2315 50.3324 40.5358 50.2915 40.1188 50.7301L38.4509 52.4849C38.034 52.9235 37.9812 53.6331 38.4044 54.0499C38.4634 54.1959 38.6668 54.2792 38.7686 54.3208C39.1755 54.4872 39.6678 54.4449 39.9403 54.069L41.6082 52.3143C42.1269 51.9172 42.078 51.1661 41.6547 50.7492ZM45.3388 63.2234L56.5284 67.8012L47.5604 89.7217L36.3708 85.1438L45.3388 63.2234ZM68.9719 37.6762C69.0161 33.7949 67.5406 30.1449 64.8833 27.3518C63.5547 25.9552 61.8518 24.893 60.1225 24.1855C58.4949 23.5196 56.6375 23.1253 54.7537 23.0857C50.9433 23.111 47.3326 24.6801 44.5419 27.4377C41.7512 30.1953 40.2566 33.8487 40.2124 37.73C40.1683 41.6113 41.6437 45.2613 44.301 48.0544C46.9583 50.8475 50.5186 52.3041 54.3289 52.2789C58.1393 52.2536 61.75 50.6845 64.5407 47.9269C67.2887 45.2736 68.8851 41.6618 68.9719 37.6762ZM54.3313 54.5951C52.5492 54.5971 50.8953 54.286 49.225 53.7245L46.2356 61.0313L57.4252 65.6092L62.9342 52.1438C60.3671 53.7744 57.4032 54.6333 54.3313 54.5951ZM54.2306 60.6466C54.1288 60.6049 53.9844 60.6677 53.781 60.5845C53.3741 60.418 53.0526 60.0428 53.1217 59.5836L53.162 57.163C53.1721 56.5579 53.6317 56.0148 54.3275 56.0558C54.9215 56.0551 55.4465 56.5135 55.3937 57.2231L55.3534 59.6437C55.3433 60.2488 54.8246 60.6459 54.2306 60.6466ZM82.6264 50.4519L94.8332 55.4459L85.8651 77.3664L73.6583 72.3723L82.6264 50.4519ZM96.8677 56.2783L108.057 60.8561L99.0892 82.7766L87.8996 78.1987L96.8677 56.2783ZM96.954 87.9957L98.2351 84.8642L87.0455 80.2864L83.928 87.9063C85.8646 87.2363 88.021 86.9 90.1509 86.9184C92.5271 86.9157 94.8341 87.3721 96.954 87.9957ZM81.1676 88.8485L85.011 79.454L72.8042 74.46L63.8361 96.3804L71.0585 99.3352C73.141 94.8256 76.7656 91.1906 81.1839 89.0989C81.1249 88.9529 81.1249 88.9529 81.1676 88.8485Z" fill="#FFC107"/>
<path d="M108.663 108.14C108.735 100.127 103.933 93.2879 97.1178 90.4995C94.9816 89.6256 92.5728 89.1275 90.1967 89.1303C79.8521 89.163 71.3519 97.749 71.1969 108.287C71.0419 118.825 79.3189 127.329 89.6635 127.296C99.8637 127.326 108.508 118.678 108.663 108.14ZM100.117 108.421L77.0086 118.463C76.7197 118.589 76.4735 118.61 76.1684 118.485C75.9649 118.402 75.8042 118.214 75.6434 118.027C75.3647 117.547 75.4765 116.983 75.8934 116.545L85.7688 107.79L82.3102 106.375C81.9033 106.209 81.6836 105.875 81.6082 105.479C81.5329 105.082 81.7037 104.665 82.0353 104.435L92.8362 95.4499C93.1678 95.22 93.5584 95.1361 93.9653 95.3025L101.086 98.2157C101.493 98.3822 101.713 98.7158 101.788 99.1122C101.863 99.5086 101.692 99.9261 101.361 100.156L95.7569 104.565L100.131 106.355C100.538 106.521 100.859 106.897 100.79 107.356C100.721 107.815 100.55 108.232 100.117 108.421ZM66.5494 49.114L59.4177 66.5459L71.6245 71.54L80.5926 49.6195L69.403 45.0417C68.6607 46.5658 67.6559 47.8607 66.5494 49.114ZM68.6755 50.5931L70.3684 52.2605C70.7916 52.6773 70.7388 53.3869 70.3218 53.8255C69.9476 54.1598 69.557 54.2437 69.1501 54.0773C69.0484 54.0357 68.8449 53.9524 68.7859 53.8064L67.0931 52.139C66.6699 51.7222 66.7226 51.0126 67.1396 50.574C67.5139 50.2397 68.2523 50.1762 68.6755 50.5931ZM58.5636 68.6336L70.7704 73.6276L61.8024 95.548L49.5955 90.554L58.5636 68.6336Z" fill="#00796B"/>
</g>
<defs>
<clipPath id="clip0_79_310">
<rect width="109.908" height="112.781" fill="white" transform="translate(42.7051) rotate(22.2504)"/>
</clipPath>
</defs>
</svg>
