<svg width="42" height="42" viewBox="0 0 42 42" fill="none" xmlns="http://www.w3.org/2000/svg">
<path d="M37.0217 10.7461H36.3809C33.553 10.7461 31.2539 13.0452 31.2539 15.873L31.2539 20.5V21H31.7539H37.6626C39.7855 21 41.5078 22.7223 41.5078 24.8452V35.0991C41.5078 37.222 39.7855 38.9443 37.6626 38.9443H27.4087C25.2858 38.9443 23.5635 37.222 23.5635 35.0991L23.5635 15.873C23.5635 8.79137 29.2993 3.05558 36.3809 3.05558L37.0217 10.7461ZM37.0217 10.7461C37.2743 10.7467 37.5246 10.6974 37.7582 10.601L37.0217 10.7461ZM7.68262 21V21.5H8.18262H14.5913C16.4381 21.5 17.9365 22.9985 17.9365 24.8452V35.0991C17.9365 36.9459 16.4381 38.4443 14.5913 38.4443L4.3374 38.4443C2.49066 38.4443 0.992188 36.9459 0.992188 35.0991V15.873C0.992188 9.06751 6.50412 3.55558 13.3096 3.55558H13.9504H13.9516C14.1384 3.55513 14.3234 3.59159 14.4961 3.66287C14.6688 3.73415 14.8256 3.83883 14.9577 3.97091C15.0898 4.103 15.1945 4.25988 15.2658 4.43254C15.337 4.6052 15.3735 4.79024 15.373 4.97703V4.97823L15.373 8.82345L15.373 8.82465C15.3735 9.01144 15.337 9.19648 15.2658 9.36914C15.1945 9.5418 15.0898 9.69868 14.9577 9.83076C14.8256 9.96284 14.6688 10.0675 14.4961 10.1388C14.3234 10.2101 14.1384 10.2465 13.9516 10.2461H13.9504H13.3096C10.2056 10.2461 7.68262 12.769 7.68262 15.873V21ZM30.7539 21V21.5H31.2539H37.6626C39.5093 21.5 41.0078 22.9985 41.0078 24.8452V35.0991C41.0078 36.9459 39.5093 38.4443 37.6626 38.4443H27.4087C25.5619 38.4443 24.0635 36.9459 24.0635 35.0991L24.0635 15.873C24.0635 9.06751 29.5754 3.55558 36.3809 3.55558H37.0217H37.0229C37.2097 3.55513 37.3947 3.59159 37.5674 3.66287C37.74 3.73415 37.8969 3.83883 38.029 3.97091C38.1611 4.103 38.2658 4.25988 38.337 4.43254C38.4083 4.6052 38.4448 4.79024 38.4443 4.97704V4.97823L38.4443 8.82345L38.4443 8.82465C38.4448 9.01144 38.4083 9.19648 38.337 9.36914C38.2658 9.5418 38.1611 9.69868 38.029 9.83076C37.8969 9.96284 37.74 10.0675 37.5674 10.1388C37.3947 10.2101 37.2097 10.2465 37.0229 10.2461H37.0217H36.3809C33.2769 10.2461 30.7539 12.769 30.7539 15.873L30.7539 21ZM15.7279 9.55993C15.8243 9.32639 15.8737 9.0761 15.873 8.82345L8.18262 21V20.5V15.873C8.18262 13.0452 10.4817 10.7461 13.3096 10.7461H13.9504C14.2031 10.7467 14.4533 10.6974 14.6869 10.601C14.9204 10.5046 15.1326 10.363 15.3113 10.1843C15.4899 10.0057 15.6315 9.79347 15.7279 9.55993Z" fill="#E0F7FA" stroke="#00796B"/>
</svg>
