<svg width="36" height="36" viewBox="0 0 36 36" fill="none" xmlns="http://www.w3.org/2000/svg">
<g clip-path="url(#clip0_68_116)">
<path d="M22.916 28.4959H22.9102C16.0611 28.4959 10.5088 22.9436 10.5088 16.0944C10.5088 9.24529 16.0611 3.69299 22.9102 3.69299H22.916C23.7029 3.69299 24.3409 4.33094 24.3409 5.11788V27.0711C24.3408 27.8579 23.7029 28.4959 22.916 28.4959Z" fill="#FFC107"/>
<path d="M24.1674 36L24.131 20.4711C24.1309 20.4365 24.1216 20.4026 24.1039 20.3728C24.0862 20.343 24.0609 20.3186 24.0305 20.3019L18.1064 17.0555C18.0625 17.0314 18.0296 16.9913 18.0147 16.9436C17.9997 16.8958 18.0039 16.8441 18.0263 16.7994L26.3698 0.108821C26.4562 -0.0683667 26.7213 -0.0178824 26.7367 0.178641L27.9018 15.1682C27.9051 15.2103 27.9221 15.2502 27.9502 15.2818C27.9782 15.3133 28.0159 15.3348 28.0573 15.343L33.5655 16.4284C33.5947 16.4341 33.6221 16.4465 33.6457 16.4645C33.6693 16.4826 33.6885 16.5058 33.7016 16.5324C33.7148 16.5591 33.7216 16.5884 33.7216 16.6181C33.7216 16.6478 33.7148 16.6771 33.7016 16.7038L24.1674 36Z" fill="#FFEB3B"/>
<path d="M16.9488 4.23613H7.12911C7.05777 4.23613 6.98713 4.22208 6.92122 4.19478C6.85531 4.16748 6.79543 4.12746 6.74498 4.07702C6.69454 4.02657 6.65453 3.96669 6.62723 3.90078C6.59993 3.83487 6.58587 3.76423 6.58587 3.69289C6.58587 3.62155 6.59993 3.55091 6.62723 3.48501C6.65453 3.4191 6.69454 3.35921 6.74498 3.30877C6.79543 3.25832 6.85531 3.21831 6.92122 3.19101C6.98713 3.16371 7.05777 3.14966 7.12911 3.14966H16.9488C17.0202 3.14966 17.0908 3.16371 17.1567 3.19101C17.2226 3.21831 17.2825 3.25832 17.3329 3.30877C17.3834 3.35921 17.4234 3.4191 17.4507 3.48501C17.478 3.55091 17.492 3.62155 17.492 3.69289C17.492 3.76423 17.478 3.83487 17.4507 3.90078C17.4234 3.96669 17.3834 4.02657 17.3329 4.07702C17.2825 4.12746 17.2226 4.16748 17.1567 4.19478C17.0908 4.22208 17.0202 4.23613 16.9488 4.23613ZM11.4494 8.63382H2.82155C2.67748 8.63382 2.53931 8.57659 2.43743 8.47471C2.33555 8.37284 2.27832 8.23466 2.27832 8.09059C2.27832 7.94651 2.33555 7.80834 2.43743 7.70646C2.53931 7.60459 2.67748 7.54735 2.82155 7.54735H11.4495C11.5935 7.54736 11.7317 7.60461 11.8336 7.70649C11.9354 7.80837 11.9927 7.94655 11.9927 8.09062C11.9927 8.2347 11.9354 8.37287 11.8335 8.47474C11.7316 8.57661 11.5935 8.63383 11.4494 8.63382ZM9.20087 14.1309H3.67501C3.53093 14.1309 3.39276 14.0737 3.29088 13.9718C3.18901 13.8699 3.13177 13.7318 3.13177 13.5877C3.13177 13.4436 3.18901 13.3054 3.29088 13.2036C3.39276 13.1017 3.53093 13.0445 3.67501 13.0445H9.20087C9.34494 13.0445 9.48312 13.1017 9.58499 13.2036C9.68687 13.3054 9.7441 13.4436 9.7441 13.5877C9.7441 13.7318 9.68687 13.8699 9.58499 13.9718C9.48312 14.0737 9.34494 14.1309 9.20087 14.1309ZM9.20087 19.628H2.82155C2.67748 19.628 2.53931 19.5708 2.43743 19.4689C2.33555 19.367 2.27832 19.2289 2.27832 19.0848C2.27832 18.9407 2.33555 18.8025 2.43743 18.7007C2.53931 18.5988 2.67748 18.5416 2.82155 18.5416H9.20087C9.34494 18.5416 9.48312 18.5988 9.58499 18.7007C9.68687 18.8025 9.7441 18.9407 9.7441 19.0848C9.7441 19.2289 9.68687 19.367 9.58499 19.4689C9.48312 19.5708 9.34494 19.628 9.20087 19.628ZM11.4494 25.1251H2.82155C2.67748 25.1251 2.53931 25.0679 2.43743 24.966C2.33555 24.8641 2.27832 24.726 2.27832 24.5819C2.27832 24.4378 2.33555 24.2996 2.43743 24.1978C2.53931 24.0959 2.67748 24.0387 2.82155 24.0387H11.4495C11.5935 24.0387 11.7317 24.0959 11.8336 24.1978C11.9354 24.2997 11.9927 24.4379 11.9927 24.5819C11.9927 24.726 11.9354 24.8642 11.8335 24.966C11.7316 25.0679 11.5935 25.1251 11.4494 25.1251ZM16.372 30.6222H6.19395C6.04988 30.6222 5.9117 30.565 5.80983 30.4631C5.70795 30.3612 5.65072 30.2231 5.65072 30.079C5.65072 29.9349 5.70795 29.7967 5.80983 29.6949C5.9117 29.593 6.04988 29.5358 6.19395 29.5358H16.372C16.5161 29.5358 16.6543 29.593 16.7562 29.6949C16.858 29.7967 16.9153 29.9349 16.9153 30.079C16.9153 30.2231 16.858 30.3612 16.7562 30.4631C16.6543 30.565 16.5161 30.6222 16.372 30.6222Z" fill="#FFC107"/>
</g>
<defs>
<clipPath id="clip0_68_116">
<rect width="36" height="36" fill="white"/>
</clipPath>
</defs>
</svg>
