<svg width="95" height="107" viewBox="0 0 95 107" fill="none" xmlns="http://www.w3.org/2000/svg">
<path d="M47.5 6C21.287 6 0 27.287 0 53.5C0 79.713 21.287 101 47.5 101C73.713 101 95 79.713 95 53.5C95 27.287 73.713 6 47.5 6ZM47.5 9.51852C54.238 9.51852 60.5889 11.0702 66.2959 13.7724C62.1757 14.6028 58.6748 16.4113 57.8374 16.2248C56.5531 15.9433 50.3324 17.02 48.0489 17.875C45.7654 18.7335 45.98 19.8207 45.41 19.965C44.84 20.1057 44.5339 20.6159 43.6507 21.6117C42.7676 22.6109 44.0906 23.8107 44.0906 23.8107C44.0906 23.8107 47.4789 24.5743 48.0489 22.0515C48.3867 20.5561 47.9081 23.3322 48.0489 24.4722C48.1896 25.6157 50.3183 25.8972 51.4583 24.4722C51.972 23.8283 51.9017 22.2556 52.2289 21.7243C52.63 21.0698 53.5167 21.5694 53.9881 21.5026C54.2696 21.4674 53.6222 21.9494 53.9881 22.1641C54.7165 22.5933 56.2154 21.858 55.8565 23.5926C55.7122 24.2928 53.5026 24.43 53.2176 25.4609C52.9291 26.4919 52.447 27.1111 52.447 27.1111L47.7217 27.2202L46.1806 25.0211C46.1806 25.0211 44.6817 25.672 45.0793 27.002C45.3572 27.9169 44.643 28.9794 44.643 28.9794C44.643 28.9794 42.2222 29.3665 42.2222 30.0807C42.2222 30.4713 41.237 30.5206 40.6811 30.7387C40.2272 30.9181 39.9211 31.6641 39.4743 31.7274C39.2069 31.7626 37.5356 32.0089 37.1661 32.0581C36.1598 32.1813 36.6137 32.41 36.6137 32.8287C36.6137 33.3987 38.482 33.4902 38.482 33.4902C38.482 33.4902 39.6783 33.9511 39.2561 34.8061C38.8269 35.6646 39.5587 36.0165 38.7037 36.0165C38.3307 36.0165 37.4722 35.9004 36.6137 35.9074C35.5054 35.9074 34.4428 35.5591 34.4146 36.0165C34.3091 37.7757 34.3056 40.3056 34.3056 40.3056C34.3056 40.3056 35.808 41.0444 36.6137 40.8544C37.7326 40.5941 39.3722 41.4702 40.1322 39.4259C40.192 39.2676 40.2307 38.9263 40.3539 38.7644C40.8817 38.0713 41.4552 36.6709 42.3313 36.2381C42.8696 35.9672 43.6191 36.1431 43.8724 36.1291C44.4424 36.0939 45.41 35.355 45.41 35.355C45.41 35.355 47.9363 35.6998 48.5978 38.2156C48.7948 38.958 48.6083 40.1789 49.0376 40.4146C49.3015 40.5589 50.4696 39.3169 50.4696 39.3169L51.7891 39.4259L51.0185 37.6667L48.5978 34.9187L49.0376 34.7076C49.0376 34.7076 50.8743 34.8272 51.0185 35.253C51.1593 35.6822 53.3689 36.7659 52.9994 38.0044C52.3802 40.0487 53.8791 40.5307 53.8791 40.5307C53.8791 40.5307 55.1774 40.8368 55.7439 39.7637C56.24 38.8243 56.2963 38.0044 56.2963 38.0044L57.9465 37.6667C57.9465 37.6667 57.7881 34.2431 59.5931 34.1481C61.4017 34.0567 61.5741 34.1481 61.5741 34.1481C61.5741 34.1481 65.543 35.4606 65.9722 36.4563C66.398 37.4556 66.595 38.4056 65.3107 38.5463C64.03 38.6906 62.123 38.4407 62.123 38.4407C62.123 38.4407 57.0774 37.6772 57.5067 39.1022C57.9324 40.5307 58.3863 41.9628 58.3863 41.9628C58.3863 41.9628 59.4806 41.8467 60.4728 42.0648C61.5354 42.3076 62.8935 42.1739 62.8935 42.1739L63.1152 44.5946L62.4537 44.8128C61.7359 45.0133 59.6143 45.1506 59.0443 45.3617C58.4743 45.5728 52.2606 44.4891 52.1198 44.7037C51.9756 44.9148 49.9594 45.6467 48.8194 45.3652C47.6794 45.0767 47.3909 42.3956 47.3909 42.3956C47.3909 42.3956 47.1833 41.1148 46.4022 41.1852L40.2448 41.7341C40.2448 41.7341 38.4856 42.5187 38.4856 42.9444C38.4856 42.9444 37.9859 42.5856 37.2752 42.9444C36.5609 43.3033 35.4702 43.2541 35.1852 43.8241C34.9002 44.3941 33.7778 45.4637 33.2043 46.463C32.6378 47.4587 30.9981 47.5396 30.5654 49.3235C30.1396 51.1039 29.837 54.0841 29.9074 55.3683C29.9778 56.6526 29.9426 59.8368 31.2269 60.537C32.5111 61.2407 34.2141 62.9719 34.8544 63.6157C35.4948 64.2561 38.9359 64.7769 39.3617 64.4954C39.7909 64.2104 41.3285 63.6157 42.1131 63.6157C42.8978 63.6157 44.5831 63.7389 45.0828 64.1646C45.5789 64.5939 46.1911 65.5157 46.6204 66.5854C47.0461 67.655 47.4754 69.46 47.8307 70.1039C48.1861 70.7443 49.5407 71.9687 49.0376 73.1826C48.5415 74.3965 47.6865 75.6033 47.8307 77.0283C47.9715 78.4533 48.8265 80.3463 49.1502 80.9867C49.4739 81.627 51.5322 83.6432 51.4583 84.287C51.388 84.9274 51.9931 84.7691 52.7778 85.0576C53.5624 85.3391 56.8944 84.4207 57.3976 83.8472C57.8937 83.2772 58.6678 81.4757 59.5967 80.5469C60.522 79.6215 62.4467 78.1015 63.4424 77.0283C64.4417 75.9587 65.462 74.977 65.5324 73.6224C65.6028 72.2643 64.8181 69.2841 65.5324 68.7844C66.2467 68.2848 67.2354 67.5107 67.9531 66.5854C68.6639 65.6565 70.1804 65.7304 71.25 62.7361C72.3196 59.7419 72.6715 58.8094 72.4604 58.6687C72.2493 58.5244 70.5463 59.2317 70.2613 59.6574C69.9763 60.0867 68.3085 60.1922 67.9496 60.537C67.5978 60.8819 65.9722 60.537 65.9722 60.537C65.9722 60.537 66.6583 57.8348 66.303 56.9094C65.9441 55.9841 64.1215 52.3635 63.5515 51.0793C63.0835 50.0272 63.0026 48.8098 63.2243 48.0041C63.3157 48.1343 63.372 48.2046 63.4424 48.3313C63.6957 48.7887 65.0644 50.4072 65.6415 52.0715C66.873 55.6357 68.2804 58.2289 68.2804 58.2289C68.2804 58.2289 70.1381 58.2993 73.2309 55.9172C75.3315 54.3022 77.5798 54.2178 77.9563 53.3909C78.6706 51.8217 75.7572 50.4213 75.7572 50.4213H73.1183L71.1409 47.0119L71.6898 46.7937C71.6898 46.7937 73.8819 49.3235 74.8776 49.3235C75.8769 49.3235 78.5298 49.0913 79.3883 50.0906C80.2433 51.0898 82.9174 52.7787 83.3467 54.4887C83.7759 56.1987 83.5578 58.5913 84.3318 59.4393C85.4296 60.6285 86.4254 60.537 86.4254 60.537L87.7448 57.4583L90.8235 53.9398L91.4744 53.6091C91.4146 77.8693 71.7707 97.4815 47.5 97.4815C36.4479 97.4861 25.8031 93.3106 17.7017 85.793L19.0211 83.8472L20.5622 77.6898L16.822 75.3817L12.5365 73.9496L9.67593 67.0252C9.67593 67.0252 7.00889 64.8683 4.79574 63.8691C3.9597 60.4757 3.53094 56.9948 3.51852 53.5C3.51852 50.9069 3.78944 48.377 4.22222 45.907C6.92444 43.8311 10.5556 42.1774 10.5556 42.1774C10.5556 42.1774 12.5611 41.9452 9.12704 36.2381C8.69026 35.5205 8.36073 34.7429 8.14889 33.93C9.59148 31.0307 11.312 28.2969 13.3317 25.8022C13.1557 26.8472 12.4731 31.1856 13.7433 31.9491C15.1683 32.8041 16.537 30.1652 16.822 29.3102C17.107 28.4552 20.0802 25.1935 21.2202 23.4835C22.033 22.2626 21.748 19.8946 20.9106 18.5083C28.5457 12.6725 37.89 9.51322 47.5 9.51852ZM38.8128 17.4352C38.1302 17.502 36.7228 17.868 36.7228 18.9763V21.0628C36.7228 21.0628 36.3006 21.8157 36.0648 22.055C35.8256 22.2907 36.0331 23.385 36.1739 23.8143C36.3146 24.2435 36.3956 25.5735 36.3956 25.5735C36.3956 25.5735 37.0852 25.9324 37.2752 26.1224C37.4652 26.3089 39.0907 26.7206 39.805 26.3406C40.5157 25.9641 40.9309 24.9613 41.4517 24.912C41.9759 24.8628 41.6557 24.8663 41.5607 24.4722C41.4693 24.0922 42.0041 22.713 42.0041 22.713L40.572 21.5026C40.572 21.5026 39.7065 19.6554 39.8015 19.0854C39.8965 18.5119 39.0978 17.502 39.1435 17.4352C39.1541 17.4 39.038 17.4 38.8128 17.4352ZM35.0796 21.6152C34.8861 21.6996 34.5131 22.1641 34.3091 22.2731C34.0382 22.4104 34.1226 22.8819 33.9783 23.2619C33.8376 23.6419 33.4294 25.0211 33.4294 25.0211L34.3091 25.3519C34.3091 25.3519 35.7059 25.088 35.8502 24.803C35.9628 24.5743 35.5511 23.3252 35.4068 22.822C35.3717 22.7024 35.4068 22.6039 35.4068 22.6039L35.1887 21.7243C35.1535 21.6539 35.143 21.5835 35.0796 21.6117V21.6152ZM71.915 33.7083C72.2352 33.7083 72.8685 33.9335 73.0128 34.0391C73.2028 34.1798 73.2028 35.8511 73.0128 36.8961C72.9427 37.2454 72.9912 37.6081 73.1506 37.9268C73.3099 38.2454 73.5709 38.5018 73.8924 38.6554C74.1809 38.7504 74.3815 41.0409 74.3322 41.5159C74.2865 41.9909 72.9424 42.3463 72.573 42.3956C72.2035 42.4448 70.6554 42.4307 70.7046 41.7341C70.7539 41.0444 70.4372 38.7891 70.1522 37.8848C69.8707 36.9841 69.9446 35.7033 70.3739 35.4676C70.8031 35.2319 71.6933 33.8174 71.6933 33.8174C71.7285 33.74 71.8059 33.7119 71.915 33.7083ZM69.9341 72.6337C69.7617 72.6337 69.5118 72.6689 69.2726 72.7393C69.2726 72.7393 69.1741 74.8504 68.1748 75.4907C67.1791 76.1346 66.5246 77.3767 66.5246 78.0206C66.5246 78.6609 66.3135 79.245 66.5246 79.8889C66.7393 80.5293 67.2283 81.0606 67.8441 80.9902C68.4633 80.9198 69.1319 79.5828 69.2761 79.0093C69.4168 78.4393 69.9481 77.2078 70.3739 76.8102C70.8031 76.4126 70.8876 75.2937 70.8137 74.7202C70.7539 74.2241 71.1304 72.6056 69.9341 72.6337Z" fill="#00796B"/>
</svg>
