<svg width="81" height="66" viewBox="0 0 81 66" fill="none" xmlns="http://www.w3.org/2000/svg">
<path d="M40.5 12.3492C35.375 12.3492 31.1875 15.791 31.1875 20.032C31.1875 24.2602 35.3594 27.7148 40.5 27.7148C45.6406 27.7148 49.8125 24.273 49.8125 20.032C49.8125 15.8039 45.625 12.3492 40.5 12.3492ZM40.5 26.168C36.4063 26.168 33.0625 23.4223 33.0625 20.032C33.0625 16.6547 36.3906 13.8961 40.5 13.8961C44.6094 13.8961 47.9375 16.6418 47.9375 20.032C47.9375 23.4094 44.5938 26.168 40.5 26.168ZM65.8125 21.6434C70.0156 21.6434 73.4531 18.8203 73.4531 15.3398C73.4531 11.8723 70.0312 9.03633 65.8125 9.03633C61.5938 9.03633 58.1719 11.8594 58.1719 15.3398C58.1719 18.8203 61.6094 21.6434 65.8125 21.6434ZM65.8125 10.5961C68.9844 10.5961 71.5781 12.723 71.5781 15.3527C71.5781 17.9695 69 20.1094 65.8125 20.1094C62.625 20.1094 60.0469 17.9824 60.0469 15.3527C60.0469 12.723 62.6406 10.5961 65.8125 10.5961Z" fill="white"/>
<path d="M72.2812 22.3266H71.8125L71.5312 22.6359C70.2031 24.1313 68.0625 25.0207 65.8125 25.0207C63.5625 25.0207 61.4219 24.1313 60.0938 22.6359L59.8125 22.3266H59.3438C55.5 22.3266 52.375 24.9047 52.375 28.0758V29.6871C51.2344 29.2231 49.9531 28.9523 48.5938 28.9523H48.125L47.8438 29.2617C46.125 31.1824 43.3906 32.3297 40.5 32.3297C37.6094 32.3297 34.875 31.1824 33.1562 29.2617L32.875 28.9523H32.4062C31.0469 28.9523 29.7656 29.2231 28.625 29.6871V28.0629C28.625 24.8918 25.5 22.3137 21.6562 22.3137H21.1875L20.9062 22.623C19.5781 24.1184 17.4375 25.0078 15.1875 25.0078C12.9375 25.0078 10.7969 24.1184 9.46875 22.623L9.1875 22.3137H8.71875C4.875 22.3266 1.75 24.9047 1.75 28.0758V38.6074H23.9375V48.9199H45.0781C46.5312 53.0965 50.875 56.3063 56.3125 56.8734C56.8594 56.925 57.4375 56.9637 57.9844 56.9637C65.3906 56.9637 71.4219 51.9879 71.4219 45.8777C71.4219 43.1063 70.1719 40.5668 68.125 38.6203H79.25V28.0887C79.25 24.9047 76.125 22.3266 72.2812 22.3266ZM23.9375 37.0605H3.625V28.0758C3.625 25.8844 5.67188 24.0797 8.26562 23.8992C9.96875 25.5879 12.5156 26.5934 15.1875 26.5934C17.8594 26.5934 20.4062 25.6008 22.1094 23.8992C24.7031 24.0797 26.75 25.8973 26.75 28.0758V30.757C25.0312 32.0332 23.9375 33.8895 23.9375 35.952V37.0605ZM47.8438 38.6074C45.7188 40.6184 44.5625 43.1965 44.5625 45.8648C44.5625 46.3676 44.6094 46.8703 44.6875 47.3731H25.8125V35.952C25.8125 33.0773 28.5312 30.7184 31.9531 30.525C34.0312 32.6391 37.1875 33.8895 40.5 33.8895C43.8125 33.8895 46.9688 32.6391 49.0469 30.525C52.1094 30.6926 54.6094 32.5746 55.0938 35.0496C52.2969 35.5523 49.75 36.8027 47.8438 38.6074ZM61.8281 46.6383H57.2969C56.7812 46.6383 56.3594 46.2902 56.3594 45.8648V40.7473C56.3594 40.3219 56.7812 39.9738 57.2969 39.9738C57.8125 39.9738 58.2344 40.3219 58.2344 40.7473V45.0914H61.8281C62.3438 45.0914 62.7656 45.4395 62.7656 45.8648C62.7656 46.2902 62.3438 46.6383 61.8281 46.6383ZM77.375 37.0605H66.1406C63.875 35.6297 61.0625 34.7789 58 34.7789C57.6562 34.7789 57.2969 34.7918 56.9531 34.8176C56.6406 33.1934 55.6562 31.7754 54.25 30.7313V28.0629C54.25 25.8715 56.2969 24.0668 58.8906 23.8863C60.5938 25.575 63.1406 26.5805 65.8125 26.5805C68.4844 26.5805 71.0312 25.5879 72.7344 23.8863C75.3281 24.0668 77.375 25.8844 77.375 28.0629V37.0605ZM7.54688 15.3398C7.54688 18.8074 10.9688 21.6434 15.1875 21.6434C19.4062 21.6434 22.8281 18.8203 22.8281 15.3398C22.8281 11.8723 19.4062 9.03633 15.1875 9.03633C10.9688 9.03633 7.54688 11.8723 7.54688 15.3398ZM20.9531 15.3398C20.9531 17.9566 18.375 20.0965 15.1875 20.0965C12 20.0965 9.42188 17.9695 9.42188 15.3398C9.42188 12.723 12 10.5832 15.1875 10.5832C18.375 10.5832 20.9531 12.723 20.9531 15.3398Z" fill="white"/>
</svg>
